<?xml version="1.0" standalone="no"?>
<!DOCTYPE svg PUBLIC "-//W3C//DTD SVG 20010904//EN"
 "http://www.w3.org/TR/2001/REC-SVG-20010904/DTD/svg10.dtd">
<svg version="1.0" xmlns="http://www.w3.org/2000/svg"
 width="1084.000000pt" height="1084.000000pt" viewBox="0 0 1084.000000 1084.000000"
 preserveAspectRatio="xMidYMid meet">
<metadata>
Created by potrace 1.14, written by Peter Selinger 2001-2017
</metadata>
<g transform="translate(0.000000,1084.000000) scale(0.100000,-0.100000)"
fill="#000000" stroke="none">
<path d="M7478 10661 c-10 -10 -18 -25 -18 -34 0 -10 -7 -17 -15 -17 -8 0 -15
5 -15 11 0 5 -4 7 -10 4 -5 -3 -10 -14 -10 -24 0 -15 -7 -18 -36 -16 -28 2
-35 -1 -31 -14 3 -9 6 -23 8 -31 2 -8 -6 -19 -18 -25 -24 -10 -31 -25 -13 -25
6 0 10 -7 10 -16 0 -11 -5 -14 -16 -10 -12 5 -15 2 -9 -11 4 -10 8 -25 9 -32
2 -8 9 -17 16 -19 9 -3 11 1 6 14 -4 14 -1 12 14 -6 26 -33 25 -43 -5 -38 -14
3 -28 1 -31 -4 -3 -5 -12 -4 -20 3 -11 9 -15 7 -21 -7 -10 -23 -35 -31 -26 -8
11 29 -19 35 -34 7 -7 -14 -11 -29 -8 -33 3 -4 -2 -10 -10 -14 -10 -4 -15 1
-15 14 0 11 -7 20 -16 20 -8 0 -12 -4 -9 -10 3 -5 1 -10 -4 -10 -6 0 -11 5
-11 10 0 14 -67 13 -76 -1 -3 -6 -2 -14 3 -18 6 -3 12 -18 15 -33 4 -19 1 -25
-9 -21 -7 3 -13 9 -13 14 0 5 -4 9 -10 9 -5 0 -10 -11 -10 -24 0 -14 -5 -28
-10 -31 -6 -4 -8 -16 -4 -27 5 -16 2 -19 -17 -16 -15 2 -25 12 -29 28 -4 18
-13 25 -29 25 -12 0 -27 8 -32 18 -15 26 -32 21 -26 -9 3 -18 1 -24 -9 -20 -7
3 -19 -1 -26 -8 -7 -7 -19 -11 -26 -8 -15 5 -16 -13 -2 -39 7 -13 7 -19 0 -19
-5 0 -10 -5 -10 -11 0 -6 7 -8 16 -5 13 5 15 1 10 -19 -4 -14 -2 -25 3 -25 6
0 8 -7 5 -15 -5 -12 2 -15 31 -15 30 0 36 -3 33 -17 -2 -10 -10 -17 -16 -16
-7 2 -12 -6 -12 -17 0 -11 -6 -20 -14 -20 -39 0 -42 -59 -2 -61 14 0 16 -2 6
-6 -8 -4 -21 -12 -28 -20 -11 -10 -17 -11 -28 -2 -11 9 -18 6 -34 -12 -11 -13
-17 -30 -15 -36 6 -18 -12 -16 -19 2 -3 8 -12 12 -21 9 -11 -5 -13 -10 -5 -19
6 -7 8 -19 5 -27 -5 -13 9 -24 46 -32 21 -4 56 -42 52 -54 -3 -8 0 -18 8 -23
10 -6 10 -9 2 -9 -7 0 -13 -9 -13 -20 0 -11 -6 -20 -14 -20 -18 0 -29 -29 -16
-45 5 -6 6 -16 2 -20 -4 -5 -2 -5 5 -1 6 3 15 1 18 -4 4 -7 19 -8 37 -5 23 5
29 4 23 -5 -4 -7 -2 -15 4 -19 14 -9 2 -45 -16 -48 -8 -2 -13 7 -13 22 0 14
-4 25 -9 25 -32 0 -20 -67 12 -72 16 -2 23 -12 28 -41 7 -45 15 -55 31 -39 18
18 25 15 32 -18 6 -31 26 -42 26 -15 0 8 -4 15 -8 15 -5 0 -9 7 -9 15 0 28 14
15 33 -30 19 -46 33 -58 35 -27 0 13 3 12 11 -5 6 -13 17 -23 25 -23 7 0 13
-7 13 -16 0 -11 6 -15 20 -11 11 3 18 0 17 -6 -1 -6 3 -12 8 -12 44 -5 94 -18
90 -24 -5 -8 -14 -8 -93 3 -37 6 -57 4 -67 -4 -10 -9 -15 -9 -15 -1 0 7 -20 9
-60 6 -44 -3 -59 -1 -57 7 5 26 -44 20 -70 -9 l-25 -28 6 28 c6 25 4 27 -23
27 -17 0 -34 -7 -39 -16 -8 -15 -10 -15 -15 0 -13 34 -26 17 -28 -36 0 -21
-19 -35 -20 -16 -1 7 0 28 1 46 1 17 -3 32 -9 32 -6 0 -11 7 -11 15 0 8 -4 15
-10 15 -14 0 -12 -27 3 -33 9 -3 9 -7 1 -17 -9 -9 -13 -5 -19 18 -5 24 -11 30
-27 27 -26 -5 -38 -23 -30 -44 5 -13 3 -14 -10 -4 -17 15 -28 7 -28 -20 0 -13
5 -17 15 -13 18 7 20 -15 3 -33 -10 -11 -10 -14 0 -18 6 -3 12 -9 12 -15 0 -6
-9 -3 -20 7 -10 9 -26 15 -35 12 -9 -4 -15 -1 -15 8 0 8 -7 15 -15 15 -15 0
-19 10 -16 42 3 21 -16 58 -29 58 -6 0 -10 -8 -10 -17 0 -14 -4 -12 -25 7
l-25 23 0 -25 c0 -21 -4 -25 -19 -21 -13 3 -17 11 -14 24 3 10 0 19 -6 19 -6
0 -11 -6 -11 -14 0 -8 -12 -24 -27 -37 -18 -14 -23 -23 -15 -26 6 -3 12 -11
12 -19 0 -17 31 -19 48 -2 9 9 12 7 12 -10 0 -17 -6 -22 -24 -22 -22 0 -24 -4
-22 -35 3 -28 0 -35 -14 -35 -10 0 -21 8 -24 17 -6 14 -9 15 -15 4 -6 -9 -11
-10 -15 -2 -12 18 -26 2 -26 -30 0 -18 -5 -29 -14 -29 -8 0 -16 -7 -20 -15
-13 -35 -22 -11 -18 50 3 45 1 65 -7 65 -7 0 -9 -4 -6 -10 3 -5 1 -10 -4 -10
-15 0 -14 33 1 48 9 9 8 12 -5 12 -9 0 -17 -7 -17 -15 0 -8 -7 -15 -15 -15 -8
0 -15 5 -15 11 0 6 -6 9 -12 6 -47 -19 -53 -20 -40 -6 21 22 14 28 -30 24 -24
-2 -38 -1 -33 3 6 4 11 13 13 21 2 10 -4 12 -20 7 -13 -3 -27 -6 -31 -6 -4 0
-7 -6 -6 -12 3 -27 -2 -38 -16 -38 -8 0 -15 -4 -15 -9 0 -21 13 -41 26 -41 21
0 17 -18 -6 -30 -14 -7 -20 -7 -20 0 0 5 -7 10 -15 10 -18 0 -20 -19 -2 -21 6
-1 -1 -4 -17 -8 -32 -7 -48 -31 -21 -31 10 0 15 -6 13 -17 -2 -10 -10 -17 -16
-15 -7 1 -12 -4 -12 -12 0 -17 22 -15 44 3 14 12 16 10 16 -10 0 -31 15 -53
29 -45 6 4 11 2 11 -3 0 -6 -6 -11 -14 -11 -8 0 -17 -8 -19 -17 -4 -14 -5 -14
-6 3 -1 17 -7 21 -31 20 -28 -1 -32 -4 -29 -22 0 -4 -5 -11 -13 -15 -11 -8
-11 -10 0 -18 11 -7 11 -9 -2 -14 -11 -5 -16 -1 -16 13 0 22 -35 28 -43 8 -2
-7 -7 -10 -11 -7 -7 7 16 35 34 41 15 5 1 38 -16 38 -8 0 -14 -5 -14 -12 0 -6
-7 -4 -18 5 -20 18 -82 23 -82 7 0 -5 5 -10 10 -10 16 0 12 -16 -5 -18 -8 -1
-22 -3 -30 -4 -22 -2 -15 -43 6 -42 12 1 15 -4 11 -18 -4 -17 -1 -20 24 -16
16 3 23 3 17 1 -7 -3 -13 -15 -13 -28 0 -13 -4 -27 -10 -30 -5 -3 -10 3 -10
14 0 12 -7 21 -15 21 -8 0 -15 -5 -15 -10 0 -13 -32 -9 -41 4 -4 5 -12 5 -18
1 -9 -5 -9 -10 0 -21 10 -12 9 -13 -6 -8 -15 6 -16 3 -10 -25 6 -30 5 -32 -14
-26 -16 5 -21 2 -21 -12 -1 -18 -22 -47 -51 -71 -15 -11 -16 -7 -13 37 2 28 0
53 -6 56 -18 11 -10 35 14 41 28 7 25 29 -5 37 -10 3 -19 14 -19 25 0 10 -8
34 -17 53 l-18 34 -5 -34 c-5 -33 -6 -34 -23 -17 -10 10 -24 15 -33 12 -8 -3
-12 -2 -9 4 3 6 13 10 21 10 9 0 14 6 11 13 -2 6 0 22 4 34 5 12 4 25 -1 28
-5 3 -10 -5 -12 -17 -2 -12 -8 -23 -15 -25 -17 -6 -11 46 7 58 12 8 12 12 2
16 -10 4 -10 8 -1 19 13 16 6 30 -10 19 -6 -3 -11 -17 -11 -31 0 -13 -4 -24
-9 -24 -5 0 -11 -10 -14 -21 -4 -14 -11 -20 -21 -16 -8 3 -18 2 -22 -4 -3 -6
-12 -8 -19 -5 -7 2 -18 -1 -25 -7 -10 -9 -11 -9 -6 0 10 19 -29 52 -53 46 -26
-7 -29 -49 -3 -56 11 -3 8 -5 -9 -6 -20 -1 -28 5 -32 21 -4 12 -9 19 -13 16
-16 -17 -32 20 -27 63 5 40 3 45 -16 45 -13 0 -21 -7 -21 -18 0 -10 5 -18 10
-18 6 0 5 -8 -2 -19 -7 -11 -15 -18 -19 -15 -4 2 -10 -2 -12 -8 -3 -8 -6 -6
-6 5 -1 11 -9 17 -24 17 -15 0 -26 9 -35 30 -8 17 -18 30 -23 30 -20 0 -20
-31 1 -60 17 -24 18 -29 5 -23 -13 4 -16 1 -13 -13 2 -10 9 -18 15 -17 7 2 11
-6 10 -17 -1 -12 -8 -20 -19 -20 -24 0 -23 -19 4 -41 11 -11 16 -19 10 -19 -7
0 -12 -6 -12 -14 0 -9 8 -12 24 -9 26 5 43 -11 25 -23 -8 -4 -9 -3 -5 4 4 7 1
12 -8 12 -9 0 -16 -5 -16 -11 0 -7 -10 -9 -25 -5 -14 4 -25 2 -25 -4 0 -5 5
-10 12 -10 9 0 9 -3 0 -12 -17 -17 -15 -38 3 -38 21 0 19 -17 -5 -30 -11 -6
-20 -17 -20 -25 0 -8 -3 -14 -7 -13 -12 4 -53 -40 -53 -57 0 -11 7 -14 25 -9
26 6 33 -4 14 -23 -8 -8 -1 -11 25 -11 20 0 36 4 36 10 0 5 4 7 10 3 17 -10
-1 -36 -21 -30 -24 8 -24 -6 -3 -68 17 -51 29 -59 37 -26 6 22 27 17 27 -6 0
-8 6 -12 14 -9 8 3 16 -3 19 -15 6 -25 27 -28 27 -5 0 14 2 15 17 3 9 -8 28
-15 42 -15 47 -3 51 -4 51 -15 0 -6 -6 -9 -14 -6 -8 3 -27 -6 -42 -19 -20 -20
-29 -23 -35 -13 -6 10 -13 8 -28 -10 -12 -13 -21 -30 -21 -38 0 -7 -4 -13 -10
-13 -5 0 -10 6 -10 13 0 7 -6 21 -13 31 -12 16 -14 16 -35 -2 -18 -16 -23 -33
-27 -92 -5 -74 -15 -109 -15 -52 0 18 -4 33 -10 33 -5 1 -14 3 -20 4 -5 1 -13
3 -16 4 -4 0 -1 7 5 14 15 19 5 26 -30 20 -17 -2 -29 0 -29 7 0 8 -6 8 -20 0
-16 -9 -20 -8 -20 5 0 8 -5 15 -11 15 -7 0 -9 -9 -6 -21 4 -16 3 -18 -9 -8
-11 9 -14 8 -14 -4 0 -8 4 -17 8 -19 15 -5 1 -78 -14 -78 -8 0 -14 -9 -14 -21
0 -15 4 -19 16 -15 9 3 19 6 24 6 5 0 11 8 13 18 3 9 5 0 6 -20 0 -20 9 -44
18 -54 16 -16 16 -16 -7 -9 -14 4 -26 12 -28 16 -5 13 -22 11 -22 -2 0 -6 -7
-17 -15 -25 -20 -21 -19 -51 3 -63 14 -9 13 -10 -10 -11 -20 0 -28 -5 -28 -18
0 -10 -7 -27 -15 -38 -14 -18 -14 -17 -15 13 0 20 -7 36 -17 42 -17 10 -17 10
0 11 9 0 17 5 17 10 0 6 -7 10 -15 10 -8 0 -15 4 -15 9 0 5 -15 12 -32 16 -32
7 -32 7 -8 14 26 7 35 41 13 49 -7 2 -13 -3 -13 -12 0 -9 -2 -16 -5 -16 -9 0
-56 49 -54 56 0 3 -2 8 -5 12 -3 3 -6 -5 -6 -17 0 -12 -7 -29 -15 -37 -13 -14
-15 -14 -15 0 0 9 -7 16 -15 16 -23 0 -18 -25 8 -43 l22 -15 -25 -10 c-14 -5
-25 -17 -25 -27 0 -29 -22 -28 -29 1 -4 14 -10 24 -13 20 -3 -3 -12 -1 -20 6
-7 6 -17 7 -21 3 -4 -4 -1 -10 6 -12 24 -9 13 -30 -13 -25 -15 2 -25 11 -25
22 0 14 -8 17 -45 14 -37 -3 -45 0 -45 14 0 9 -5 24 -10 32 -9 13 -11 13 -19
0 -7 -10 -6 -17 2 -23 9 -7 9 -10 0 -14 -18 -7 -16 -26 2 -19 10 4 15 -1 15
-14 0 -11 7 -20 15 -20 8 0 15 -4 15 -9 0 -5 9 -11 20 -14 13 -3 20 0 20 9 0
8 5 14 10 14 16 0 11 -29 -9 -51 -10 -11 -18 -28 -16 -37 2 -9 4 -21 4 -27 1
-5 5 -4 10 4 7 11 12 10 28 -6 25 -25 36 -53 21 -53 -6 0 -17 8 -24 18 -15 20
-31 9 -34 -23 -4 -34 0 -45 14 -45 7 0 20 -7 27 -17 13 -15 12 -15 -8 -5 -17
10 -22 9 -27 -5 -4 -9 -2 -21 4 -27 7 -7 10 -6 10 2 0 7 9 12 21 12 11 0 29
10 40 23 l18 22 1 -31 c0 -29 3 -32 41 -38 22 -4 44 -4 50 -1 5 4 9 2 9 -3 0
-6 -7 -12 -15 -16 -8 -3 -15 -13 -16 -23 -1 -13 -3 -10 -9 7 l-8 25 -7 -22
c-4 -13 -11 -23 -16 -23 -5 0 -9 -15 -10 -32 0 -29 -1 -30 -9 -12 -10 26 -46
38 -54 18 -4 -10 -14 -12 -31 -8 -24 6 -25 4 -23 -35 1 -30 6 -41 17 -42 10 0
12 -2 4 -6 -25 -10 -14 -30 13 -25 19 3 25 1 20 -7 -4 -6 -16 -11 -27 -11 -22
0 -27 -37 -5 -42 10 -2 11 -9 3 -28 -8 -20 -11 -22 -14 -7 -3 9 -8 17 -13 17
-4 0 -7 8 -6 18 1 11 -6 16 -18 15 -13 -1 -15 2 -7 10 15 15 14 48 -1 44 -7
-1 -15 -8 -18 -15 -4 -10 -12 -8 -32 8 -30 23 -41 15 -40 -32 1 -25 -2 -28
-26 -23 -15 2 -33 -2 -43 -11 -24 -22 -35 0 -15 31 12 18 12 25 3 28 -7 3 -5
6 6 6 11 1 17 9 17 26 0 18 -4 23 -15 19 -8 -4 -15 -12 -15 -20 0 -8 -5 -13
-12 -11 -7 1 -15 -13 -18 -33 l-6 -35 -8 37 c-9 41 -26 42 -26 2 0 -15 -6 -24
-15 -24 -8 0 -15 -4 -15 -10 0 -5 5 -10 10 -10 6 0 10 -6 10 -13 0 -6 13 -18
29 -25 31 -14 57 -62 47 -87 -9 -25 5 -77 20 -71 7 3 20 -1 28 -9 11 -11 16
-12 19 -2 4 9 8 9 15 -2 5 -7 15 -10 22 -6 8 5 8 1 -1 -13 -7 -11 -21 -19 -31
-17 -11 2 -18 -2 -18 -11 0 -8 -6 -14 -14 -14 -8 0 -18 -5 -21 -10 -8 -13 14
-42 26 -34 5 3 9 -6 9 -20 0 -34 -15 -41 -33 -15 -20 28 -61 22 -65 -9 -2 -16
-8 -22 -18 -18 -9 3 -14 -1 -14 -12 -1 -15 -2 -15 -15 2 -12 16 -12 21 0 40 8
11 15 31 15 44 0 17 4 23 15 18 10 -4 15 1 15 14 0 33 -24 22 -44 -20 -12 -25
-28 -43 -43 -46 -13 -4 -23 -12 -23 -19 0 -7 -9 -15 -20 -18 -15 -4 -20 -14
-20 -36 0 -31 14 -42 23 -18 3 6 6 -2 6 -19 1 -23 7 -33 21 -37 11 -3 20 -1
20 4 0 4 7 6 15 3 8 -4 12 -10 9 -15 -3 -5 2 -9 10 -9 17 0 32 -59 22 -85 -6
-17 -36 -20 -36 -4 0 8 -5 8 -15 -1 -8 -7 -15 -21 -15 -31 0 -11 -4 -19 -10
-19 -6 0 -6 10 1 28 13 34 13 33 -3 43 -10 7 -10 9 0 9 6 0 12 7 12 16 0 11
-5 14 -16 10 -9 -3 -18 -6 -20 -6 -3 0 -2 -4 1 -10 3 -5 -1 -10 -10 -10 -13 0
-15 -8 -11 -47 3 -27 3 -42 0 -35 -9 19 -34 14 -34 -8 0 -13 -7 -20 -20 -20
-27 0 -15 -28 16 -36 13 -3 24 -11 24 -16 0 -7 4 -7 13 -1 17 14 61 -36 64
-73 2 -24 0 -26 -8 -11 -5 9 -17 17 -25 17 -8 0 -13 -4 -10 -8 2 -4 1 -14 -5
-22 -6 -11 -9 -4 -9 22 0 66 -32 56 -45 -14 -5 -26 -11 -35 -21 -31 -16 6 -20
-22 -4 -32 6 -4 8 -11 5 -16 -11 -16 5 -31 20 -19 18 15 66 -15 58 -37 -3 -8
-9 -11 -12 -6 -3 5 -21 10 -38 11 -29 3 -33 1 -33 -21 0 -21 -4 -24 -21 -20
-19 5 -20 3 -14 -18 4 -13 13 -27 19 -31 17 -11 36 -9 36 3 0 8 5 8 15 -1 8
-7 14 -20 14 -29 -1 -13 -2 -13 -6 2 -2 9 -8 17 -13 17 -14 0 -40 -30 -40 -46
0 -8 -7 -14 -16 -14 -11 0 -14 -5 -10 -16 3 -9 6 -18 6 -20 0 -2 14 -4 30 -4
20 0 30 -5 30 -15 0 -13 -4 -14 -20 -5 -17 9 -20 8 -20 -9 0 -11 -4 -23 -10
-26 -5 -3 -10 -21 -10 -40 0 -19 -5 -37 -10 -40 -6 -4 -7 -13 -1 -23 5 -10 6
-24 1 -33 -5 -8 -5 -21 -1 -28 5 -7 5 -30 1 -51 -4 -21 -4 -44 1 -51 4 -7 5
-18 2 -23 -4 -5 -6 -86 -6 -178 0 -92 -3 -168 -7 -168 -8 0 -25 116 -24 158 1
12 -2 22 -6 22 -4 0 -10 23 -13 50 -8 63 -37 161 -54 178 -7 8 -11 18 -8 23 4
5 1 9 -4 9 -6 0 -11 9 -11 21 0 11 -4 17 -10 14 -6 -4 -10 12 -10 39 0 29 -4
45 -11 43 -7 -1 -16 11 -20 28 -5 16 -16 36 -26 43 -11 8 -17 25 -16 47 1 48
-14 54 -23 9 -4 -22 -9 -31 -14 -24 -4 7 -13 9 -19 6 -14 -9 -14 3 0 42 9 25
8 35 -3 46 -8 7 -21 11 -29 7 -21 -11 -44 -7 -42 7 2 7 -2 12 -7 12 -6 0 -10
7 -10 15 0 8 4 15 8 15 5 0 9 6 10 13 0 6 4 23 8 36 5 17 4 22 -5 17 -6 -4 -9
-12 -6 -17 4 -5 1 -9 -4 -9 -6 0 -11 10 -11 21 0 17 -3 19 -13 10 -8 -6 -17
-8 -20 -4 -4 3 -7 1 -7 -5 0 -7 -7 -12 -15 -12 -8 0 -15 -6 -16 -12 -1 -7 -4
-2 -8 12 -5 19 -13 24 -32 22 -23 -2 -23 -2 -6 12 10 8 20 21 21 29 1 8 8 22
15 31 13 15 7 56 -8 56 -5 0 -14 -7 -21 -15 -16 -19 -30 -19 -30 0 0 9 6 12
15 9 8 -4 15 -1 15 6 0 17 -50 3 -66 -18 -12 -16 -13 -16 -20 1 -4 11 -13 16
-21 13 -9 -4 -17 1 -20 14 -3 11 -9 20 -14 20 -5 0 -9 7 -9 16 0 8 -5 12 -10
9 -5 -3 -10 -1 -10 5 0 6 6 13 13 16 15 5 18 84 5 84 -5 0 -8 -4 -8 -10 0 -5
-4 -10 -10 -10 -5 0 -10 9 -10 20 0 11 -7 20 -15 20 -8 0 -15 -9 -15 -21 0
-11 5 -17 10 -14 6 3 10 0 10 -7 0 -7 -11 -18 -25 -25 -20 -9 -25 -8 -25 3 0
8 -7 14 -15 14 -8 0 -15 -7 -15 -15 0 -8 -4 -15 -10 -15 -5 0 -10 -10 -10 -22
-1 -22 -1 -22 -12 -3 -6 11 -20 29 -30 39 -10 11 -18 26 -18 33 0 21 -21 15
-27 -7 -6 -24 -4 -23 -35 -7 -25 13 -26 36 -2 50 8 4 14 17 14 28 0 11 4 18 9
14 14 -8 21 9 11 25 -7 12 -12 12 -28 -3 -21 -19 -37 -23 -26 -6 3 6 0 15 -7
20 -11 7 -9 10 9 15 15 4 22 14 22 30 0 13 -4 24 -10 24 -5 0 -10 -4 -10 -10
0 -5 -7 -7 -15 -4 -8 4 -15 14 -15 24 0 27 -11 51 -20 45 -5 -3 -6 4 -3 15 3
11 0 20 -6 20 -6 0 -11 -9 -11 -20 0 -10 -9 -24 -20 -30 -14 -7 -20 -7 -20 0
0 5 -5 10 -11 10 -24 0 -3 -35 23 -37 23 -1 78 -41 63 -44 -3 -1 -9 -2 -14 -3
-5 0 -13 -4 -17 -8 -13 -14 -54 -9 -60 7 -5 11 -10 12 -26 4 -16 -9 -19 -19
-16 -55 2 -30 -1 -45 -10 -49 -20 -8 -22 -7 -22 15 0 11 -3 19 -7 19 -21 -3
-33 2 -33 16 0 8 -7 15 -15 15 -8 0 -15 6 -15 14 0 30 -62 21 -83 -11 -13 -20
-26 -15 -20 7 3 11 1 20 -5 20 -5 0 -12 -14 -16 -32 -5 -25 -9 -29 -19 -19
-18 18 -17 102 2 98 8 -1 16 4 18 11 3 6 -2 12 -10 12 -8 0 -17 13 -21 31 -7
38 -27 29 -22 -11 2 -16 -1 -27 -5 -24 -5 3 -9 12 -9 20 0 8 -6 14 -12 14 -9
0 -9 3 1 9 12 8 12 12 -2 26 -12 11 -17 12 -17 4 0 -10 -3 -10 -12 -1 -9 9 -9
15 -1 23 9 9 8 18 -4 35 -21 33 -31 30 -39 -10 -4 -24 -10 -33 -20 -29 -18 7
-29 -23 -15 -41 10 -11 4 -15 -27 -18 -32 -3 -39 0 -38 14 1 10 -3 17 -8 17
-5 0 -12 5 -17 12 -6 11 -9 10 -15 -4 -3 -9 -10 -14 -15 -11 -5 3 -9 -4 -9
-16 0 -14 5 -20 18 -18 11 2 18 -4 20 -19 2 -13 8 -23 13 -23 5 0 9 -5 9 -10
0 -6 -6 -10 -12 -9 -47 6 -49 -14 -7 -56 20 -19 26 -31 18 -34 -7 -2 -15 1
-17 8 -5 14 -42 15 -42 1 0 -19 -18 -10 -24 13 -4 16 -8 19 -15 9 -7 -11 -9
-11 -14 2 -4 9 -14 16 -22 16 -9 0 -13 -4 -10 -10 3 -5 1 -10 -4 -10 -6 0 -11
-13 -11 -30 0 -40 -18 -38 -22 3 -2 19 -8 31 -15 30 -8 -2 -13 7 -13 22 0 14
-4 25 -9 25 -5 0 -16 2 -23 5 -8 3 -26 -5 -40 -17 -23 -20 -25 -25 -14 -41 14
-18 10 -67 -5 -67 -6 0 -12 7 -15 15 -4 9 -15 13 -30 11 -13 -3 -26 -1 -29 4
-3 5 -12 7 -20 3 -20 -7 -19 -43 0 -43 8 0 15 -4 15 -10 0 -5 -16 -10 -36 -10
-31 0 -36 -3 -31 -19 3 -13 0 -17 -12 -14 -9 2 -27 -5 -40 -16 -28 -24 -42
-20 -17 5 15 14 15 19 3 38 -12 18 -12 23 -1 34 18 17 18 32 -1 32 -8 0 -15 5
-15 10 0 6 7 10 15 10 9 0 12 6 9 15 -4 8 -10 12 -15 9 -5 -3 -9 0 -9 6 0 6
-5 8 -12 3 -7 -4 -22 -9 -33 -10 -15 -2 -17 -1 -6 6 10 6 12 20 8 45 -5 33 -4
36 14 31 15 -5 19 -2 19 15 0 12 -4 19 -9 15 -5 -3 -12 -1 -16 4 -3 6 -13 7
-21 4 -13 -5 -15 -1 -9 15 7 24 -4 29 -22 11 -8 -8 -7 -20 3 -45 12 -29 12
-34 0 -34 -8 0 -17 -6 -20 -12 -7 -17 -36 19 -36 45 0 10 -5 17 -12 14 -7 -2
-13 -14 -13 -27 0 -14 -7 -24 -18 -26 -19 -2 -21 10 -18 89 2 58 -13 62 -25 5
-9 -40 -10 -41 -48 -42 -34 -1 -41 -5 -49 -29 -7 -22 -5 -32 9 -48 10 -11 12
-19 6 -19 -7 0 -12 -7 -12 -16 0 -10 -6 -14 -15 -10 -18 6 -20 -15 -3 -32 15
-15 9 -20 -30 -28 -25 -5 -32 -3 -32 10 0 9 -5 16 -11 16 -8 0 -9 -11 -5 -31
3 -17 6 -38 6 -45 0 -7 14 -17 30 -21 17 -4 30 -11 30 -15 0 -40 -2 -42 -10
-21 -6 15 -15 21 -25 17 -16 -6 -21 -24 -7 -24 5 0 14 -12 21 -27 10 -21 14
-24 21 -13 11 17 23 7 27 -22 4 -26 3 -25 28 -30 11 -1 23 -7 28 -13 4 -6 11
-4 17 5 8 12 10 9 10 -14 0 -21 -4 -27 -15 -23 -8 4 -17 2 -20 -3 -3 -5 -12
-7 -20 -4 -9 4 -18 -2 -23 -17 -7 -19 -10 -20 -15 -6 -4 10 -13 17 -22 17 -17
0 -17 0 -20 -53 -1 -33 -15 -68 -15 -39 0 7 -6 12 -14 12 -9 0 -12 8 -8 25 2
15 0 25 -7 25 -6 0 -11 -7 -11 -15 0 -12 -8 -14 -40 -9 -33 5 -40 4 -40 -9 0
-11 6 -14 15 -11 11 4 13 2 9 -9 -3 -9 -12 -18 -20 -21 -8 -3 -14 -13 -14 -21
0 -9 5 -13 11 -9 16 10 30 -18 17 -34 -8 -9 -13 -10 -18 -2 -5 8 -9 7 -13 -4
-4 -9 -2 -16 3 -16 5 0 9 -11 8 -24 -2 -19 -5 -22 -15 -14 -7 6 -13 16 -13 22
0 15 -55 36 -70 26 -7 -4 -10 -12 -6 -18 12 -19 -15 -24 -29 -6 -13 17 -16 17
-25 4 -8 -13 -10 -13 -10 2 0 9 8 21 17 27 20 11 12 23 -17 28 -14 2 -20 -3
-20 -16 0 -11 -5 -23 -10 -26 -6 -4 -8 -11 -5 -16 4 -5 2 -9 -3 -9 -6 0 -12 7
-16 15 -3 9 -18 15 -35 15 -28 0 -29 -2 -22 -39 1 -2 7 2 15 8 11 9 15 8 20
-5 4 -10 2 -22 -4 -28 -14 -14 -12 -36 3 -36 8 0 20 11 27 25 19 35 23 25 26
-51 2 -63 12 -93 21 -66 7 17 30 15 37 -4 10 -25 7 -32 -11 -30 -12 1 -19 -8
-23 -29 -4 -24 -10 -30 -30 -30 -14 1 -28 -3 -31 -8 -4 -5 -9 3 -13 17 -7 28
-26 36 -26 11 0 -8 -4 -15 -10 -15 -15 0 -11 -42 6 -65 9 -12 12 -30 8 -47 -6
-28 10 -40 19 -15 7 20 17 3 10 -21 -6 -26 -19 -28 -41 -6 -13 14 -17 14 -21
3 -2 -8 -10 -18 -17 -22 -8 -4 -14 -21 -14 -37 0 -24 4 -30 23 -30 31 0 48
-13 38 -29 -7 -11 -10 -10 -18 3 -5 9 -16 14 -24 11 -12 -5 -15 -32 -14 -163
0 -86 -1 -148 -3 -137 -2 11 -8 22 -12 25 -5 3 -10 12 -12 19 -3 14 -14 29
-55 75 -13 14 -23 30 -23 36 0 17 -18 11 -22 -7 -2 -13 -10 -5 -23 24 -18 38
-45 58 -45 33 0 -5 -4 -10 -10 -10 -14 0 -13 27 2 32 18 6 0 28 -23 28 -11 0
-24 -10 -29 -22 l-9 -23 0 23 c-1 12 -6 22 -12 22 -6 0 -9 -12 -6 -27 2 -16 2
-22 0 -15 -3 8 -11 11 -18 8 -8 -3 -16 5 -19 20 -4 14 -10 22 -15 20 -5 -3
-14 1 -21 9 -16 19 -33 9 -25 -16 5 -15 1 -19 -14 -19 -12 0 -21 -6 -21 -15 0
-13 4 -14 20 -5 16 8 18 8 14 -5 -6 -15 -54 -18 -54 -3 0 4 -4 8 -10 8 -5 0
-10 -6 -10 -14 0 -7 -7 -19 -15 -26 -12 -10 -15 -10 -15 4 0 9 -5 16 -10 16
-6 0 -9 5 -8 12 5 20 -30 21 -35 1 -5 -17 -5 -17 -6 0 -1 12 -6 16 -13 11 -10
-6 -10 -4 0 7 16 18 15 29 -3 29 -13 0 -20 -18 -16 -42 0 -5 -3 -8 -7 -8 -5 0
-14 -12 -20 -26 -7 -14 -17 -22 -22 -19 -6 3 -10 -2 -10 -13 0 -22 30 -25 31
-3 0 12 3 11 9 -4 13 -31 12 -45 -5 -45 -8 0 -15 -7 -15 -15 0 -20 -10 -19
-26 3 -12 15 -14 14 -20 -15 -3 -18 -11 -31 -16 -30 -6 1 -13 -4 -15 -10 -3
-7 3 -13 12 -13 9 0 13 -5 10 -10 -4 -6 -10 -8 -15 -5 -18 11 -21 -17 -4 -30
16 -11 17 -16 5 -38 -18 -33 -41 -24 -41 17 0 23 -3 27 -9 16 -6 -8 -7 -18 -5
-22 3 -4 0 -8 -5 -8 -6 0 -11 8 -11 18 0 14 -4 12 -19 -8 -15 -19 -22 -22 -33
-12 -19 15 -28 6 -28 -29 0 -33 -15 -46 -28 -23 -6 10 -9 -4 -9 -45 0 -34 4
-61 9 -61 5 0 7 4 3 9 -3 5 -1 12 5 16 11 7 21 -13 25 -48 3 -29 1 -28 30 -17
21 8 25 7 25 -10 0 -11 5 -20 10 -20 6 0 10 5 10 10 0 17 18 11 23 -7 3 -13 5
-12 6 5 1 29 31 64 31 37 0 -9 5 -13 10 -10 6 4 10 -7 10 -25 0 -17 -4 -29 -9
-26 -5 3 -11 -1 -15 -9 -4 -11 2 -15 27 -15 23 0 28 -3 18 -9 -8 -5 -22 -8
-32 -6 -11 2 -16 -1 -13 -9 3 -7 -2 -19 -11 -26 -19 -16 -19 -37 0 -37 9 0 15
10 15 23 0 28 25 23 33 -7 6 -22 27 -26 27 -4 0 8 5 15 10 15 6 0 10 -9 10
-20 0 -14 5 -18 17 -13 13 5 15 2 10 -18 -4 -13 -7 -28 -7 -32 0 -4 -9 -3 -20
3 -16 9 -20 8 -20 -5 0 -8 6 -15 14 -15 7 0 22 -22 32 -50 16 -40 22 -47 34
-39 11 8 12 12 3 16 -27 10 -12 21 23 16 27 -4 35 -2 32 8 -4 13 14 39 27 39
3 0 10 -12 16 -26 9 -25 11 -26 28 -10 19 18 46 22 36 6 -4 -6 -11 -8 -16 -5
-5 4 -9 -3 -9 -14 0 -12 5 -21 10 -21 6 0 10 5 10 11 0 5 5 7 10 4 6 -3 7 -17
4 -30 -4 -18 -2 -23 11 -21 9 1 20 8 24 15 5 7 12 11 17 10 5 -2 12 10 15 27
4 16 7 23 8 16 1 -7 10 -11 25 -8 18 3 25 -1 30 -17 3 -12 8 -18 12 -14 4 4
13 2 20 -4 9 -7 14 -6 20 2 4 7 2 15 -4 17 -15 5 -16 42 -2 42 6 0 13 -7 16
-15 7 -18 24 -10 24 11 0 9 -5 12 -12 8 -8 -4 -10 -3 -5 2 5 5 13 9 18 9 5 0
9 4 8 9 -1 15 25 26 32 14 8 -13 17 -5 67 58 17 23 32 49 32 58 0 9 4 16 9 16
5 0 11 8 13 18 2 9 4 -21 4 -68 0 -70 2 -85 14 -82 13 2 13 1 0 -10 -18 -16
-23 -129 -6 -140 8 -6 7 -8 -1 -8 -19 0 -16 -59 2 -66 8 -4 15 -12 15 -18 0
-7 7 -13 15 -13 8 0 15 6 15 14 0 18 10 16 26 -4 19 -26 17 -35 -6 -28 -18 6
-19 3 -13 -26 4 -24 2 -34 -10 -41 -22 -12 -22 -52 0 -78 18 -20 18 -20 30 12
7 19 12 25 12 15 1 -14 8 -18 28 -15 24 3 28 -1 36 -35 7 -29 12 -35 22 -27 9
8 14 5 18 -11 5 -18 2 -20 -29 -16 -35 5 -41 -3 -36 -53 1 -8 -1 -33 -4 -54
l-6 -40 -15 27 c-14 28 -43 37 -43 13 0 -7 7 -19 16 -27 14 -11 14 -13 0 -21
-9 -5 -20 -7 -25 -4 -7 5 -21 -15 -21 -30 0 -9 39 -3 45 6 4 6 11 8 16 5 5 -4
9 -1 9 6 0 8 4 8 15 -1 8 -7 15 -23 15 -36 0 -19 5 -23 23 -20 12 1 23 11 25
20 2 9 -2 15 -8 14 -7 -2 -15 3 -17 10 -3 7 4 12 16 12 13 0 21 6 21 16 0 9 6
14 12 12 7 -3 13 -15 13 -28 0 -17 6 -24 23 -25 12 -1 22 4 22 12 0 7 6 13 14
13 7 0 16 10 20 22 4 17 8 20 17 11 6 -6 9 -18 7 -25 -10 -25 -8 -33 10 -33 9
0 17 -7 17 -15 0 -8 -8 -14 -18 -14 -13 2 -17 -4 -15 -20 2 -11 9 -21 17 -21
8 0 16 -6 19 -12 2 -7 -3 -13 -12 -13 -9 0 -16 -8 -16 -19 0 -17 4 -18 30 -11
16 5 34 11 40 15 5 3 10 -1 10 -9 0 -9 5 -16 10 -16 6 0 10 7 10 16 0 8 7 22
15 30 13 14 15 11 15 -24 0 -57 35 -78 53 -32 4 10 6 8 6 -7 1 -18 7 -23 26
-23 14 0 25 -4 25 -10 0 -5 7 -7 15 -4 10 4 15 0 15 -14 0 -15 -6 -19 -25 -17
-14 2 -25 -1 -25 -6 0 -6 -4 -8 -9 -4 -13 7 -30 -26 -23 -44 3 -10 -2 -12 -22
-7 -19 5 -26 3 -26 -8 0 -7 -7 -19 -15 -26 -8 -7 -15 -18 -15 -25 0 -19 32
-14 37 6 4 14 8 15 18 6 10 -10 9 -15 -7 -25 -11 -8 -22 -12 -25 -8 -7 6 -34
-20 -32 -31 5 -18 -14 -62 -28 -67 -8 -3 -11 -10 -8 -16 8 -13 25 -13 25 0 0
6 8 20 18 30 16 17 22 18 45 7 28 -13 33 -22 17 -32 -19 -12 -10 -26 11 -20
16 5 19 4 14 -5 -4 -7 -1 -16 6 -21 12 -8 11 -11 -3 -20 -19 -11 -25 -49 -8
-49 5 0 7 -7 4 -15 -6 -15 14 -20 62 -16 18 1 23 -6 28 -44 10 -67 29 -57 24
13 -3 32 -1 66 3 77 4 11 8 14 8 8 1 -7 8 -13 17 -13 11 0 14 -6 9 -20 -4 -14
-2 -20 8 -20 8 0 17 13 20 29 6 30 37 52 37 26 0 -8 7 -15 15 -15 12 0 13 -5
4 -26 -10 -29 -4 -64 13 -64 6 0 8 10 4 24 -4 16 -2 24 7 23 33 -1 47 4 47 18
0 12 -7 14 -27 9 -23 -5 -26 -4 -15 7 6 7 12 28 12 46 0 30 2 32 29 27 20 -4
30 -2 34 10 4 10 1 19 -9 23 -12 4 -13 8 -3 13 18 12 15 101 -5 115 -20 15
-20 22 -1 22 8 0 15 -6 15 -13 0 -13 46 -28 60 -19 6 4 9 -4 7 -17 -2 -20 2
-23 26 -20 15 2 27 -1 27 -7 0 -6 -4 -11 -10 -11 -5 0 -10 -11 -10 -24 0 -22
3 -23 43 -19 23 3 49 12 58 20 15 12 17 11 21 -17 3 -19 -1 -37 -9 -45 -17
-18 -17 -25 2 -25 8 0 15 -6 15 -14 0 -8 10 -12 27 -11 42 3 43 4 43 24 0 10
7 21 15 25 8 3 15 17 15 31 0 25 19 36 21 13 1 -7 2 -17 4 -23 1 -5 3 -16 3
-22 1 -7 11 -13 23 -13 12 0 17 4 13 11 -4 8 0 9 15 4 15 -5 21 -2 21 9 0 19
1 19 33 7 19 -8 27 -6 31 5 3 8 11 14 18 14 10 0 10 -2 0 -9 -8 -4 -13 -12
-13 -17 0 -5 -9 -19 -20 -32 -16 -19 -18 -26 -8 -38 10 -12 14 -12 20 -2 4 7
11 10 14 6 9 -8 -36 -79 -46 -72 -5 3 -9 -2 -9 -10 0 -9 7 -16 16 -16 8 0 12
-5 9 -10 -4 -6 3 -9 17 -6 16 2 22 9 20 23 -2 16 2 18 33 15 33 -4 36 -7 30
-29 -5 -23 -3 -24 25 -19 28 4 30 3 18 -11 -10 -12 -10 -17 -1 -20 7 -2 9 -11
6 -19 -3 -8 1 -14 11 -14 9 0 16 7 16 15 0 8 5 15 12 15 9 0 9 3 0 12 -18 18
-15 25 13 32 20 5 25 13 25 37 0 18 4 28 10 24 6 -4 9 -14 8 -22 -2 -9 3 -18
10 -21 7 -2 13 2 11 9 -3 28 1 39 16 39 8 0 15 7 15 15 0 8 -9 15 -20 15 -17
0 -19 5 -14 24 3 13 1 33 -5 44 -9 16 -7 21 8 25 23 6 41 -10 34 -29 -3 -8 0
-14 6 -14 6 0 11 10 11 23 1 20 2 21 14 4 7 -9 18 -17 25 -17 16 0 13 -27 -4
-34 -8 -3 -15 -12 -15 -20 0 -10 6 -13 15 -10 8 4 15 12 15 20 0 7 9 18 21 24
36 20 59 49 53 67 -4 13 -3 14 3 5 13 -17 43 -4 43 19 0 30 20 22 27 -11 3
-17 12 -30 20 -30 8 0 11 -5 8 -10 -4 -6 -11 -8 -16 -5 -5 4 -9 -6 -9 -21 0
-15 3 -24 7 -21 3 4 12 2 20 -4 10 -9 13 -8 13 4 0 8 10 17 23 21 33 9 37 8
37 -9 0 -8 5 -15 10 -15 6 0 10 5 10 12 0 6 3 8 6 5 9 -9 -25 -59 -35 -52 -7
4 -21 -16 -21 -29 0 -2 16 -3 35 -4 27 -1 35 2 35 16 0 10 7 27 16 38 15 18
15 18 10 -6 -6 -29 2 -70 14 -70 4 0 8 27 9 61 0 47 -3 60 -13 56 -9 -4 -12 2
-8 19 5 26 12 30 29 13 13 -13 36 -3 27 12 -3 5 -9 7 -14 4 -5 -3 -10 7 -12
22 -2 17 -8 27 -16 25 -9 -1 -12 5 -10 18 2 12 7 20 11 20 5 -1 15 7 23 17 13
17 13 17 14 -4 0 -27 28 -31 37 -5 3 9 15 25 25 35 10 10 16 22 13 28 -4 5 -1
9 4 9 6 0 11 -7 11 -15 0 -8 5 -15 10 -15 6 0 10 -7 10 -15 0 -8 7 -15 15 -15
8 0 15 4 15 9 0 4 11 6 25 3 24 -4 36 -32 15 -32 -13 0 -13 -27 1 -35 6 -4 13
3 16 14 4 15 11 20 24 16 15 -5 18 -1 15 29 -4 40 -14 59 -27 51 -5 -4 -9 -1
-9 4 0 6 7 11 15 11 8 0 15 7 15 16 0 9 5 12 12 8 7 -5 9 0 6 14 -6 22 16 39
27 21 4 -5 13 -2 23 7 10 11 17 13 20 5 2 -6 12 -11 22 -11 10 0 21 -6 24 -12
5 -10 7 -10 12 0 3 6 12 12 20 12 22 0 28 29 11 48 -16 17 -17 21 -17 47 0 8
-7 15 -15 15 -8 0 -15 4 -15 9 0 5 11 8 25 5 21 -4 25 0 25 18 0 15 3 19 8 11
4 -7 17 -14 27 -16 11 -1 26 -6 33 -10 8 -6 12 -2 12 12 0 10 6 21 13 24 9 3
9 10 -3 32 -12 22 -12 29 -2 32 6 3 12 11 12 18 0 14 17 15 37 2 10 -6 10 -12
1 -27 -7 -10 -16 -16 -20 -14 -10 6 -11 -20 -1 -29 3 -4 13 -1 21 6 13 9 14 9
8 0 -4 -8 -1 -13 9 -13 12 0 14 8 9 40 -4 22 -2 40 3 40 12 0 15 48 3 55 -6 3
-10 16 -10 28 0 16 3 18 9 8 6 -9 11 -10 15 -2 4 6 12 11 17 11 6 0 7 -5 4
-10 -8 -13 3 -50 15 -50 5 0 8 18 7 40 -1 27 4 44 16 52 10 7 21 27 26 43 4
17 13 29 20 27 6 -1 11 12 11 33 0 19 5 35 10 35 6 0 10 11 10 25 0 14 4 25
10 25 5 0 7 7 4 15 -4 10 0 15 11 15 9 0 15 6 13 12 -3 7 3 31 13 53 10 22 20
67 23 99 3 33 9 62 14 65 4 3 8 13 8 21 1 49 18 150 24 150 4 0 8 -75 8 -167
0 -93 0 -184 1 -203 1 -19 1 -57 1 -84 0 -26 3 -52 5 -56 3 -5 1 -11 -4 -15
-6 -3 -2 -20 9 -40 11 -19 15 -35 10 -35 -6 0 -10 -9 -10 -20 0 -11 4 -20 9
-20 5 0 11 -10 13 -22 3 -21 4 -21 21 -4 16 17 17 16 17 -3 0 -12 -6 -22 -12
-22 -7 -1 -17 -2 -23 -4 -5 -1 -15 -3 -22 -3 -6 -1 -10 -10 -8 -19 1 -10 8
-17 14 -16 6 2 13 -8 16 -20 7 -25 35 -32 47 -13 5 7 8 4 8 -6 0 -10 -6 -18
-12 -19 -7 -1 -20 -2 -28 -3 -8 -2 -22 -3 -32 -4 -10 -1 -15 -9 -13 -20 2 -9
4 -20 4 -24 1 -4 8 -4 18 -1 11 4 14 3 9 -5 -4 -6 3 -21 15 -33 19 -19 24 -20
33 -8 11 14 34 19 38 9 1 -3 -3 -14 -10 -25 -6 -11 -12 -16 -12 -11 0 5 -7 3
-15 -4 -10 -9 -15 -9 -15 -1 0 23 -16 10 -28 -22 -15 -42 -15 -48 0 -45 6 2
17 -15 23 -36 16 -56 45 -58 45 -3 l1 42 13 -30 c8 -20 15 -25 20 -17 4 7 11
10 15 8 10 -6 8 -40 -3 -43 -4 -1 -15 -10 -24 -21 -9 -10 -34 -22 -54 -26 -21
-4 -38 -11 -38 -16 0 -19 5 -25 17 -22 8 2 13 -6 13 -19 0 -17 4 -20 21 -16
19 5 20 3 14 -29 -5 -29 -2 -39 16 -55 25 -21 35 -24 44 -9 3 5 -1 10 -9 10
-19 0 -21 11 -5 27 8 8 8 17 0 31 -15 27 -14 32 3 26 8 -3 13 -11 10 -17 -2
-7 1 -19 6 -27 8 -12 13 -13 29 -3 22 14 28 9 31 -27 6 -53 -21 -86 -67 -85
-30 1 -33 -2 -33 -28 0 -22 -4 -28 -15 -23 -11 4 -15 -1 -15 -17 0 -20 22 -44
85 -91 20 -15 20 -15 -2 -16 -26 0 -39 -16 -18 -24 8 -3 17 -1 20 4 8 13 35 1
35 -16 0 -8 7 -14 15 -14 8 0 15 7 15 15 0 8 -7 15 -15 15 -9 0 -15 9 -15 24
0 13 -6 29 -14 35 -8 7 -13 20 -11 29 2 9 4 19 4 21 1 3 6 0 12 -6 6 -6 17 -9
24 -7 7 3 15 -7 18 -25 8 -37 35 -41 62 -11 13 14 22 17 30 10 18 -15 6 -50
-16 -50 -12 0 -17 -7 -16 -20 1 -12 8 -20 19 -20 12 0 18 -8 19 -22 0 -13 3
-17 6 -10 2 6 12 12 20 12 10 0 13 -6 9 -16 -3 -9 -6 -19 -6 -22 0 -4 -17 -7
-37 -7 -34 0 -38 -3 -46 -35 -6 -22 -5 -36 1 -38 7 -2 5 -17 -5 -40 -18 -45
-13 -39 -45 -47 -25 -6 -26 -5 -21 25 3 24 1 31 -9 28 -14 -5 -15 -27 -2 -67
5 -17 4 -22 -4 -17 -7 4 -12 1 -12 -8 0 -8 9 -20 19 -26 13 -6 17 -17 14 -30
-3 -11 -1 -20 4 -20 5 0 14 17 20 38 9 33 11 34 12 10 0 -16 9 -36 19 -46 9
-10 22 -27 29 -38 11 -17 12 -16 12 14 1 19 -8 47 -20 63 -24 34 -18 54 12 38
11 -5 30 -9 42 -7 19 3 22 -2 25 -34 2 -21 5 -38 8 -38 8 0 49 25 56 35 4 6 8
2 8 -7 0 -10 7 -18 15 -18 18 0 20 21 2 39 -10 10 -9 11 4 6 13 -5 20 3 29 30
9 27 15 34 23 26 9 -9 8 -17 -1 -31 -16 -26 -15 -40 3 -40 8 0 15 -4 15 -10 0
-5 -7 -10 -15 -10 -16 0 -17 -4 -20 -68 -1 -34 2 -42 14 -41 31 3 41 -1 41
-15 0 -21 36 -8 48 17 10 21 11 21 11 -5 1 -16 6 -28 11 -28 6 0 10 -9 10 -20
0 -11 5 -20 10 -20 6 0 10 10 10 23 0 22 1 22 13 -3 15 -29 4 -38 -45 -39 -24
-1 -28 -5 -28 -31 0 -22 -4 -28 -15 -24 -8 4 -15 12 -15 20 0 8 -7 14 -16 14
-8 0 -12 -4 -9 -10 3 -5 2 -10 -4 -10 -5 0 -11 7 -13 15 -2 10 -7 12 -18 5
-13 -9 -12 -12 4 -25 17 -13 15 -19 -6 -17 -10 2 -18 -27 -9 -32 5 -3 6 -17 3
-31 -5 -29 14 -34 33 -9 6 9 18 15 25 12 10 -3 9 -8 -4 -20 -9 -9 -16 -22 -16
-28 0 -7 -8 -10 -19 -7 -14 3 -21 -2 -25 -16 -3 -12 0 -24 5 -28 15 -9 1 -49
-17 -49 -8 0 -14 -7 -14 -16 0 -13 -2 -13 -17 2 -13 13 -14 19 -5 22 6 2 12
11 12 20 0 12 -5 10 -25 -8 -25 -23 -37 -90 -16 -90 5 0 7 -9 4 -20 -4 -14 0
-20 11 -20 11 0 16 9 16 29 0 28 1 29 45 25 39 -3 45 0 45 16 0 10 5 22 10 25
6 3 10 2 10 -4 0 -6 7 -8 15 -5 8 4 15 1 15 -5 0 -6 -4 -11 -10 -11 -5 0 -10
-7 -10 -15 0 -8 5 -15 10 -15 6 0 10 4 10 9 0 5 9 11 20 14 11 3 20 12 20 21
0 9 7 16 16 16 8 0 12 -4 9 -10 -3 -5 5 -20 19 -33 24 -22 24 -23 5 -35 -23
-14 -25 -32 -4 -32 8 0 15 7 15 16 0 28 28 -9 32 -42 l3 -29 15 32 c13 29 50
53 50 32 0 -5 5 -9 10 -9 15 0 12 48 -2 53 -7 2 3 10 23 17 33 12 36 16 36 52
0 53 20 73 29 29 4 -18 13 -35 20 -38 9 -3 11 -15 7 -34 -4 -21 -1 -30 11 -35
9 -3 16 -12 16 -19 0 -17 38 -15 44 2 3 7 11 13 17 13 8 0 6 -7 -4 -18 -10
-10 -18 -36 -18 -58 -1 -21 -3 -32 -5 -24 -3 8 -16 20 -30 27 -23 11 -25 10
-22 -10 2 -12 9 -21 16 -19 6 1 12 -8 12 -20 0 -41 12 -67 37 -84 21 -13 27
-14 34 -3 6 9 12 10 17 4 4 -5 16 -11 26 -13 16 -3 18 1 13 26 -5 26 -4 29 17
25 20 -4 23 -1 24 27 1 38 12 54 12 19 2 -87 10 -130 30 -151 21 -23 22 -23
36 -4 8 11 14 26 14 33 0 20 20 16 20 -4 1 -10 9 -28 19 -40 19 -23 38 -32 26
-13 -3 6 0 10 8 10 8 0 17 -6 20 -14 3 -8 20 -17 37 -21 26 -6 29 -9 19 -21
-7 -8 -15 -11 -18 -7 -9 12 -47 9 -65 -6 -14 -11 -16 -11 -16 3 0 25 -17 19
-24 -10 -6 -21 -9 -24 -21 -14 -15 12 -16 11 -19 -12 -2 -21 -26 -20 -26 1 0
12 -4 21 -10 21 -9 0 -11 -6 -14 -42 -1 -7 -7 -19 -13 -26 -18 -19 -16 -52 2
-52 9 0 19 10 24 23 7 17 8 13 7 -20 0 -24 -4 -43 -8 -43 -5 0 -8 7 -8 15 0
18 -26 20 -33 3 -4 -10 -6 -10 -6 0 -1 17 -28 15 -28 -3 0 -8 4 -15 8 -15 5 0
6 -7 2 -16 -6 -15 -7 -15 -19 1 -16 21 -34 12 -27 -15 3 -11 10 -17 15 -14 5
3 12 -3 15 -15 3 -12 12 -21 19 -21 8 0 14 -6 14 -14 0 -7 9 -16 20 -19 11 -3
20 -13 20 -22 0 -9 -4 -14 -9 -10 -16 9 -24 -15 -11 -30 9 -11 9 -15 1 -15 -6
0 -11 -5 -11 -10 0 -6 10 -8 24 -4 18 4 25 1 29 -15 3 -13 1 -18 -9 -14 -9 3
-12 -4 -11 -24 1 -18 -3 -27 -10 -25 -7 1 -13 -7 -13 -19 0 -14 5 -19 14 -16
8 3 16 -2 19 -14 3 -12 0 -19 -9 -19 -8 0 -14 -10 -14 -21 0 -19 2 -20 16 -8
12 10 11 4 -5 -26 -25 -48 -26 -55 -5 -55 9 0 21 13 27 30 8 21 18 30 33 30
13 0 24 7 27 18 4 16 5 16 6 0 0 -10 7 -18 15 -18 8 0 16 -7 20 -15 3 -8 1
-15 -4 -15 -6 0 -10 -7 -10 -15 0 -9 9 -15 21 -15 20 0 21 4 15 50 -6 46 -2
57 20 48 3 -2 13 11 22 27 l17 30 3 -33 c2 -20 9 -32 18 -32 8 0 14 -4 14 -10
0 -5 11 0 25 12 13 11 22 25 19 30 -3 5 7 6 23 2 15 -4 29 -11 31 -15 2 -4 9
-6 16 -3 13 5 52 -43 42 -53 -3 -3 -1 -15 5 -25 8 -15 14 -17 22 -9 9 9 8 14
-3 21 -13 9 -13 11 0 20 12 8 12 12 2 18 -7 5 -15 20 -17 34 -4 22 -2 25 15
21 17 -5 19 -1 16 25 -2 23 1 32 15 35 15 4 19 0 19 -19 0 -52 25 -20 39 51 4
21 13 31 29 33 22 3 32 22 11 22 -6 0 -17 7 -26 15 -11 12 -12 19 -4 29 7 8
10 36 7 67 -2 30 -2 48 1 42 2 -7 11 -13 19 -13 8 0 14 -7 14 -15 0 -9 7 -18
15 -21 8 -4 15 -17 15 -31 0 -17 4 -22 13 -16 16 10 56 15 41 6 -6 -5 -14 -18
-18 -30 -6 -18 -3 -23 10 -23 13 0 14 -3 4 -15 -10 -12 -9 -15 7 -15 10 0 25
6 32 13 11 9 14 9 18 0 7 -18 33 -16 33 2 0 10 9 15 28 14 22 -1 23 -2 5 -6
-13 -3 -20 -10 -17 -18 3 -7 -8 -27 -25 -44 -40 -40 -39 -57 2 -65 23 -5 28
-9 18 -15 -9 -6 -11 -16 -7 -27 6 -14 9 -16 15 -5 6 8 16 11 31 6 15 -5 20 -4
16 4 -4 6 0 11 8 11 9 0 16 6 16 13 0 8 3 8 9 -2 11 -17 41 -8 41 12 0 8 -12
19 -26 26 -15 6 -24 14 -21 18 4 3 13 0 21 -6 17 -15 36 -7 36 15 0 8 8 14 18
13 10 0 12 -3 5 -6 -7 -2 -13 -11 -13 -19 0 -9 5 -12 10 -9 6 4 10 3 9 -2 -4
-22 4 -30 31 -31 22 0 30 4 31 16 0 11 3 12 6 5 2 -7 11 -13 19 -13 8 0 14 -5
14 -11 0 -6 -7 -9 -15 -6 -10 5 -16 -4 -21 -28 -6 -36 -21 -46 -30 -22 -8 21
-34 16 -34 -6 0 -13 5 -17 15 -13 9 3 15 0 15 -9 0 -8 -7 -15 -15 -15 -23 0
-18 -12 16 -44 23 -22 33 -26 39 -16 10 16 40 6 40 -15 0 -8 -9 -15 -20 -15
-15 0 -20 -7 -20 -27 0 -14 3 -23 7 -20 11 12 31 -13 26 -34 -4 -14 -1 -18 9
-14 9 4 19 -4 26 -20 11 -24 11 -25 -8 -15 -20 11 -22 9 -24 -20 -1 -8 -8 -14
-15 -12 -16 3 -61 -24 -61 -37 0 -13 30 -7 39 8 4 6 15 9 24 5 10 -3 17 -1 17
5 0 6 7 11 16 11 20 0 64 40 64 58 0 9 -7 11 -22 7 -16 -6 -20 -4 -15 8 3 8 0
20 -6 26 -8 8 -8 11 0 11 6 0 13 -6 16 -12 3 -10 8 -9 22 2 11 9 16 10 11 3
-4 -7 -2 -13 4 -13 6 0 15 11 20 25 5 14 12 25 15 25 4 0 4 -4 0 -9 -10 -17
12 -21 25 -6 11 13 14 13 26 -2 10 -14 15 -16 25 -5 10 9 10 12 1 12 -7 0 -12
10 -11 23 0 12 3 16 6 10 8 -22 23 -14 23 13 0 21 -4 25 -20 21 -11 -3 -20 -1
-20 4 0 5 9 9 21 9 16 0 20 6 19 28 -3 45 -1 46 25 18 14 -15 26 -38 27 -51 2
-19 8 -24 28 -23 14 1 27 5 30 9 3 3 16 10 29 14 18 5 22 4 15 -6 -4 -7 -9
-23 -10 -36 -2 -18 2 -23 22 -23 17 0 24 -5 24 -20 0 -17 -5 -19 -25 -14 -41
10 -76 -38 -36 -51 11 -3 23 -15 26 -26 8 -25 25 -25 25 1 0 11 7 20 15 20 8
0 15 -9 15 -20 0 -17 3 -19 19 -10 11 5 27 7 36 4 22 -9 35 12 35 59 0 20 3
36 8 36 21 -4 31 3 26 16 -4 11 -2 13 9 9 9 -3 25 -1 36 6 14 7 21 7 21 0 0
-5 -5 -10 -11 -10 -6 0 -9 -6 -6 -12 2 -7 9 -12 15 -11 6 2 9 -4 5 -13 -3 -8
-11 -13 -18 -10 -20 7 -26 -4 -14 -26 6 -12 17 -17 25 -14 11 4 14 0 12 -16
-2 -18 2 -23 25 -25 15 -1 27 3 27 10 0 8 4 7 9 -2 15 -23 43 13 41 52 -3 49
-1 59 10 52 6 -4 10 -14 9 -23 -3 -39 2 -50 24 -50 12 -1 36 -2 52 -4 26 -3
30 0 28 20 -2 12 2 22 7 22 6 0 10 -5 10 -11 0 -36 51 -44 76 -11 9 12 14 12
33 1 18 -12 23 -12 32 1 8 11 12 12 16 3 2 -7 11 -13 18 -13 7 0 15 6 18 13 3
9 7 9 20 -2 12 -9 25 -11 44 -5 16 4 39 8 53 9 14 0 30 4 37 8 6 4 14 3 18 -3
3 -5 -11 -12 -35 -16 -22 -4 -40 -10 -40 -14 0 -3 -7 -7 -15 -8 -8 -1 -22 -3
-30 -4 -8 -1 -15 -10 -15 -21 0 -13 -5 -17 -15 -13 -10 3 -17 -3 -21 -21 l-7
-27 -10 25 c-7 17 -11 20 -14 9 -12 -38 -35 -80 -43 -80 -13 0 -13 17 0 25 16
10 12 35 -5 29 -8 -3 -14 -9 -13 -12 4 -32 -4 -43 -29 -40 -21 2 -28 -2 -31
-17 -9 -57 -12 -63 -31 -58 -15 4 -21 -2 -26 -27 -8 -38 16 -65 25 -28 7 27
26 34 34 13 11 -28 -12 -56 -39 -49 -20 5 -25 2 -25 -12 0 -9 -3 -14 -7 -11
-9 9 -33 -12 -33 -30 0 -8 14 -19 31 -25 22 -8 27 -13 18 -19 -7 -4 -10 -11
-6 -15 3 -4 13 -1 22 6 9 8 15 8 15 2 0 -6 -9 -14 -21 -17 -16 -5 -20 -13 -16
-32 5 -27 -19 -45 -33 -23 -4 7 -13 9 -20 5 -10 -6 -9 -11 5 -22 11 -7 16 -14
12 -14 -4 -1 -11 -3 -17 -4 -5 -1 -19 -3 -29 -4 -13 -1 -19 -8 -18 -23 0 -13
-2 -29 -4 -37 -2 -7 2 -16 9 -18 8 -3 16 4 19 16 6 23 11 25 33 11 13 -8 12
-10 -4 -10 -18 0 -18 -1 -2 -19 16 -18 16 -20 0 -29 -9 -5 -14 -14 -10 -21 10
-16 26 -14 26 4 0 8 6 15 14 15 8 0 16 4 18 9 2 5 14 1 27 -10 16 -13 19 -19
8 -19 -8 0 -18 -7 -21 -15 -7 -20 15 -57 31 -51 6 3 13 -5 15 -17 2 -12 9 -21
16 -19 6 1 12 -5 12 -13 0 -11 -11 -15 -36 -15 -28 0 -35 -3 -30 -15 3 -8 1
-15 -4 -15 -5 0 -7 -15 -5 -32 3 -18 3 -27 -1 -20 -11 24 -21 11 -21 -28 0
-22 4 -40 9 -40 5 0 17 -7 25 -16 13 -13 17 -13 24 -2 9 14 12 5 9 -29 -1 -17
3 -21 14 -17 9 3 16 12 16 20 0 9 11 14 30 14 23 0 30 4 30 20 0 22 39 49 41
28 1 -7 1 -17 0 -21 -1 -4 5 -17 13 -29 8 -11 12 -27 9 -34 -3 -8 0 -14 6 -14
6 0 11 7 11 16 0 8 5 12 11 9 6 -4 8 -10 5 -13 -3 -3 -1 -11 5 -19 9 -10 8
-13 -5 -13 -9 0 -16 -7 -16 -15 0 -8 7 -15 15 -15 8 0 15 -9 15 -20 0 -11 4
-20 9 -20 5 0 12 -8 14 -18 2 -9 3 -7 2 6 -1 12 6 31 15 42 18 21 36 28 25 10
-3 -6 1 -10 9 -10 11 0 16 10 17 28 0 15 3 21 6 14 2 -6 8 -10 13 -7 4 3 6 -3
4 -12 -5 -23 21 -57 36 -48 6 4 9 13 6 20 -2 7 2 16 10 19 9 3 14 -1 14 -14 0
-18 6 -20 54 -17 l53 3 -16 -28 c-9 -15 -17 -23 -19 -18 -2 6 -11 10 -19 10
-13 0 -13 -3 -3 -15 10 -12 9 -16 -4 -21 -9 -3 -16 -14 -16 -23 0 -11 3 -12 8
-4 4 7 13 9 21 4 11 -7 10 -11 -5 -20 -18 -10 -17 -12 8 -32 23 -17 26 -24 17
-40 -14 -27 -5 -37 31 -33 27 3 30 1 30 -24 1 -25 1 -26 15 -8 16 21 48 15 39
-7 -3 -8 2 -21 10 -30 9 -9 16 -20 16 -25 0 -8 22 -22 36 -22 2 0 4 9 4 21 0
13 6 20 18 18 9 -1 24 -1 32 0 13 1 13 3 -1 14 -16 12 -34 61 -19 52 14 -8 61
17 56 30 -3 8 4 10 20 7 13 -2 24 -11 24 -18 0 -8 7 -14 15 -14 19 0 20 19 1
26 -9 3 -13 16 -12 32 2 15 -1 30 -7 34 -8 5 -8 14 0 30 7 16 8 30 1 41 -5 10
-6 26 -3 37 4 14 2 20 -9 20 -9 0 -30 9 -48 20 l-33 21 50 -1 c82 -1 87 0 81
16 -5 12 1 14 30 9 33 -5 36 -3 31 15 -4 17 -3 19 9 9 11 -9 14 -8 14 2 1 9 4
8 11 -4 9 -15 14 -16 25 -6 12 10 17 6 27 -20 12 -34 33 -43 24 -11 -3 11 -1
18 4 14 5 -3 9 2 9 10 0 9 -7 16 -16 16 -10 0 -14 6 -11 14 3 7 0 19 -6 25 -8
8 -8 11 1 11 6 0 9 7 6 15 -7 18 7 20 23 4 6 -6 17 -8 24 -4 9 6 9 11 -3 19
-8 6 -18 22 -21 36 -4 14 -4 19 -1 13 10 -23 26 -14 22 12 -6 29 11 34 19 5 4
-15 11 -18 36 -13 21 4 28 3 23 -5 -4 -8 0 -12 12 -12 10 0 24 11 30 26 7 14
17 22 22 19 6 -3 10 -1 10 5 0 18 42 -9 47 -31 6 -21 24 -21 31 -1 2 7 -3 12
-12 12 -9 0 -16 5 -16 11 0 7 -13 25 -30 40 -16 16 -25 31 -20 34 13 8 13 45
0 45 -5 0 -10 7 -10 15 0 8 -9 15 -20 15 -11 0 -20 -4 -20 -10 0 -5 -7 -10
-15 -10 -8 0 -15 7 -15 15 0 8 7 15 15 15 18 0 20 26 3 33 -7 3 -1 6 14 6 15
1 29 5 32 10 8 12 -4 42 -14 36 -9 -6 -7 11 4 37 4 9 14 14 22 11 9 -3 14 2
14 14 0 11 8 28 18 39 22 23 18 44 -8 44 -30 0 -70 22 -63 34 4 6 6 31 6 57
-2 42 0 46 18 42 10 -3 19 -1 19 5 0 18 -29 34 -50 27 -12 -4 -20 -2 -20 5 0
7 -6 10 -14 7 -9 -4 -16 4 -19 21 -6 31 6 61 17 43 8 -12 36 -15 36 -3 0 4
-14 16 -30 26 -17 9 -28 22 -25 27 8 13 -4 49 -16 49 -6 0 -8 -9 -4 -20 5 -15
3 -18 -9 -14 -9 3 -16 1 -16 -5 0 -6 5 -11 11 -11 5 0 8 -4 4 -10 -3 -5 -12
-7 -20 -4 -11 4 -12 11 -5 24 11 21 -8 80 -26 80 -9 0 -10 -9 -3 -32 5 -17 7
-34 4 -36 -2 -2 -8 11 -13 29 -6 23 -14 34 -25 33 -10 -1 -17 6 -17 17 0 11
-6 19 -14 19 -8 0 -17 7 -20 16 -3 9 -13 14 -21 10 -8 -3 -17 -1 -20 4 -3 5
-14 7 -23 5 -10 -2 -23 5 -29 14 -10 17 -5 18 63 18 56 0 74 -3 74 -13 0 -20
27 -17 38 3 9 16 11 16 27 0 20 -21 35 -22 35 -2 0 8 5 15 10 15 6 0 10 -6 10
-14 0 -23 22 -31 35 -13 7 9 15 14 18 10 10 -10 37 18 37 38 0 13 5 17 17 12
11 -4 12 -8 5 -11 -15 -5 -16 -68 -2 -77 13 -8 40 19 40 39 0 9 5 16 10 16 6
0 10 -7 10 -15 0 -8 4 -15 9 -15 15 0 20 15 11 30 -5 8 -4 22 1 33 8 14 13 16
25 6 8 -6 14 -18 14 -25 0 -8 5 -14 12 -14 6 0 4 -6 -7 -13 -12 -10 -14 -16
-7 -21 7 -4 12 -4 12 0 0 3 7 1 16 -7 13 -10 17 -10 24 0 5 9 10 10 14 2 12
-19 26 -12 26 14 0 23 2 24 20 13 23 -14 38 -4 45 30 4 23 -10 39 -20 22 -3
-5 -14 -10 -23 -9 -11 0 -12 3 -4 6 6 2 12 13 12 23 0 13 5 17 20 13 15 -4 20
0 20 16 0 24 22 28 40 6 9 -11 9 -15 1 -15 -7 0 -9 -5 -6 -10 3 -6 0 -10 -7
-10 -8 0 -7 -5 4 -16 16 -16 43 -11 33 7 -4 5 1 9 9 9 9 0 19 -12 22 -27 4
-16 10 -32 14 -38 4 -5 6 -18 5 -28 -4 -19 -4 -19 46 -22 36 -2 37 -1 28 24
-13 36 -6 89 14 104 9 6 18 24 21 39 4 23 1 28 -15 28 -10 0 -19 4 -19 9 0 18
45 7 68 -16 13 -13 25 -23 28 -23 14 0 59 59 56 73 -3 15 8 22 31 18 4 0 7 5
7 13 0 7 7 19 15 26 12 10 12 7 -1 -19 -14 -28 -14 -32 0 -47 9 -8 20 -12 26
-9 6 4 10 -6 10 -24 0 -16 -5 -33 -11 -37 -8 -4 -4 -13 12 -25 13 -10 18 -19
12 -19 -7 0 -13 -7 -13 -16 0 -14 3 -14 15 -4 11 9 18 10 28 1 8 -6 17 -8 20
-4 11 10 8 53 -3 53 -5 0 -10 7 -10 15 0 8 7 15 15 15 8 0 14 -3 14 -7 -6 -40
1 -46 46 -40 43 6 45 5 45 -18 0 -16 6 -25 15 -25 8 0 15 -4 15 -10 0 -5 -5
-10 -11 -10 -6 0 -9 -6 -7 -12 6 -18 58 -19 58 -2 0 8 -5 14 -10 14 -6 0 -8
13 -5 29 3 20 0 31 -11 35 -22 8 -7 26 22 26 31 0 31 13 0 30 -28 14 -44 43
-20 33 17 -6 18 8 2 26 -10 11 -10 13 0 7 7 -5 12 0 13 11 1 10 4 2 8 -17 l6
-35 23 25 c26 28 30 85 7 94 -9 3 -15 0 -15 -9 0 -8 -7 -15 -16 -15 -11 0 -15
8 -14 28 3 45 1 52 -19 52 -22 0 -40 20 -19 21 7 0 21 2 30 4 9 2 19 -4 23
-13 5 -14 7 -14 15 -2 8 13 10 12 10 -2 0 -10 3 -18 8 -18 15 0 41 40 36 55
-4 8 -1 15 6 15 7 0 10 7 6 15 -3 8 -1 15 5 15 5 0 12 -7 15 -15 4 -8 12 -15
20 -15 17 0 19 -27 3 -32 -16 -5 -2 -45 16 -45 8 0 15 4 15 9 0 4 6 7 13 6 6
-2 11 4 11 13 -2 20 24 19 36 -1 7 -12 10 -12 15 2 4 9 13 14 21 11 9 -3 14 2
14 17 0 16 4 20 15 16 9 -3 15 0 15 9 0 8 -4 15 -10 15 -5 0 -10 7 -10 15 0
24 -20 17 -21 -7 -1 -17 -2 -19 -6 -5 -2 9 -12 17 -21 18 -11 0 -12 2 -4 6 6
2 12 20 12 39 0 34 13 45 24 22 5 -11 7 -11 12 0 3 6 12 12 20 12 9 0 13 -4
10 -9 -3 -5 2 -12 11 -15 19 -8 62 32 46 43 -6 3 -13 15 -17 26 -5 17 0 23 26
30 26 8 34 16 36 38 2 18 9 27 22 27 11 0 20 10 24 25 4 14 11 25 16 25 6 0
10 9 10 20 0 12 7 20 16 20 12 0 14 -5 9 -18 -4 -9 -6 -30 -5 -47 2 -16 4 -43
4 -60 0 -16 4 -32 8 -35 4 -3 1 -18 -7 -34 -19 -37 -19 -39 4 -33 12 3 22 -1
25 -9 8 -20 26 -17 26 3 0 14 3 14 12 5 10 -10 10 -14 0 -21 -8 -5 -10 -18 -6
-39 7 -36 10 -38 29 -18 15 14 69 10 59 -5 -3 -5 -1 -9 5 -9 5 0 11 7 13 15 2
9 8 12 17 6 10 -7 11 -13 2 -30 -10 -18 -9 -22 6 -28 26 -9 37 -33 34 -70 -3
-40 11 -42 34 -7 15 23 15 27 1 37 -15 11 -14 13 4 25 12 7 20 8 20 2 0 -5 5
-10 10 -10 6 0 10 9 10 21 0 11 -4 17 -10 14 -5 -3 -10 3 -10 15 0 17 4 19 28
14 34 -8 52 -22 62 -49 7 -16 9 -12 9 18 1 20 6 37 12 37 7 0 22 12 35 27 l24
28 0 -24 c0 -16 4 -21 14 -18 10 4 12 0 9 -14 -5 -17 -1 -18 28 -12 19 3 43 9
54 13 11 4 27 3 36 -3 21 -13 69 -1 69 18 0 18 -16 20 -24 3 -3 -7 -4 6 -1 29
3 26 1 43 -5 43 -5 0 -10 -4 -10 -10 0 -5 -4 -10 -9 -10 -11 0 -9 19 4 39 5
10 4 16 -3 19 -7 2 -12 10 -12 18 0 8 -7 14 -15 14 -8 0 -15 5 -15 10 0 6 5
10 11 10 6 0 9 5 7 11 -4 12 -23 13 -23 2 0 -13 -16 -33 -26 -33 -15 0 -11 15
11 40 11 13 20 27 20 33 0 5 6 7 14 4 8 -3 17 -1 19 6 7 20 -5 47 -20 47 -8 0
-12 -4 -8 -9 3 -5 2 -12 -3 -15 -5 -3 -8 11 -8 30 1 26 5 34 19 34 11 0 18 7
16 17 -3 34 1 41 21 36 14 -4 20 0 20 10 0 11 -13 18 -36 23 -24 4 -32 9 -23
15 21 12 6 20 -44 21 -44 0 -46 2 -41 27 7 33 -28 60 -53 40 -12 -10 -16 -10
-24 2 -5 8 -9 20 -9 27 0 15 -12 15 -29 -1 -11 -10 -13 -9 -7 1 4 7 1 14 -6
16 -44 14 -68 15 -80 3 -8 -9 -21 -11 -33 -6 -11 4 -14 8 -7 8 7 1 23 12 36
26 13 14 31 25 40 25 9 0 16 6 16 13 0 6 4 18 9 25 7 12 12 12 30 0 28 -17 39
-2 36 48 -3 40 9 52 31 30 8 -9 22 -16 30 -16 8 0 14 -4 14 -10 0 -5 5 -10 10
-10 6 0 10 7 10 15 0 8 5 15 10 15 15 0 9 88 -7 94 -7 3 -13 -1 -13 -9 0 -29
-15 -15 -16 15 -1 17 3 30 7 30 5 0 9 12 9 28 0 21 2 24 10 12 9 -13 11 -13
20 0 7 11 10 12 10 2 0 -16 24 -42 38 -42 6 0 12 7 16 15 3 8 12 15 21 15 8 0
15 4 15 10 0 5 7 7 16 3 16 -6 16 -7 0 -18 -9 -7 -16 -17 -16 -24 0 -19 24
-12 38 10 10 16 17 18 25 10 6 -6 14 -11 18 -11 12 0 16 35 7 60 -7 18 -11 21
-20 12 -18 -18 -32 -14 -45 13 -6 14 -7 25 -2 25 5 0 9 12 9 26 0 14 -4 23 -9
20 -5 -4 -12 0 -14 6 -4 10 -8 10 -15 -1 -6 -8 -12 -9 -16 -3 -3 6 -2 13 4 17
5 3 10 18 11 33 l0 27 10 -24 c7 -18 13 -21 21 -13 6 6 16 8 23 6 14 -6 25 25
25 74 0 27 -4 32 -22 32 -18 0 -20 2 -8 9 8 6 18 7 23 4 5 -3 8 10 7 28 -4 72
0 129 10 129 6 0 10 -11 10 -24 0 -13 9 -35 20 -49 11 -14 20 -30 20 -36 0
-13 22 -10 32 4 5 6 8 5 8 -3 0 -7 5 -10 10 -7 6 3 10 -1 10 -9 0 -9 7 -16 16
-16 8 0 13 4 10 9 -3 5 1 12 10 15 11 4 18 -1 21 -15 4 -14 12 -19 24 -16 11
3 22 1 25 -4 9 -15 41 -10 48 7 9 24 7 34 -7 34 -8 0 -14 7 -14 15 0 8 6 15
14 15 7 0 13 9 13 19 0 26 10 51 21 51 5 0 9 -8 9 -18 0 -11 8 -18 20 -19 11
-1 20 4 20 13 0 8 5 14 10 14 6 0 10 7 10 15 0 8 7 15 15 15 8 0 15 9 15 20 0
11 -7 20 -15 20 -8 0 -15 9 -15 20 0 15 -7 20 -29 20 -27 0 -29 3 -35 50 -4
31 -11 48 -17 44 -6 -3 -5 3 2 14 16 25 5 40 -15 23 -17 -15 -36 -7 -36 15 0
8 -4 14 -10 14 -5 0 -10 8 -11 18 0 10 -3 12 -6 5 -2 -7 -11 -13 -19 -13 -8 0
-14 -4 -14 -10 0 -5 -7 -7 -15 -4 -8 3 -28 -1 -46 -10 -28 -14 -30 -14 -25 0
3 9 6 20 6 25 0 6 5 7 10 4 6 -4 10 5 10 21 0 22 2 25 15 14 19 -16 30 8 22
49 -8 39 2 71 19 64 8 -3 11 -9 8 -14 -3 -5 2 -9 11 -9 11 0 15 6 10 19 -4 14
-1 18 11 17 22 -1 28 18 11 36 -8 7 -12 24 -11 36 4 21 -4 26 -36 23 -11 -1
-12 0 -3 6 16 11 10 65 -8 72 -18 8 -22 71 -4 71 7 0 16 -11 19 -25 5 -18 13
-25 32 -25 13 0 27 7 30 15 4 8 15 15 25 15 10 0 19 6 19 13 0 9 3 9 9 -1 9
-15 46 -13 43 2 -1 6 -9 11 -18 12 -26 4 -27 11 -5 33 12 12 21 23 20 26 -4
17 11 46 20 40 6 -3 11 1 11 10 0 8 -7 18 -15 21 -8 4 -15 12 -15 20 0 8 -7
14 -15 14 -8 0 -15 -4 -15 -10 0 -5 -7 -10 -16 -10 -12 0 -14 7 -10 28 4 17 1
35 -8 47 -14 19 -15 19 -25 -7 -10 -28 -31 -39 -31 -17 0 14 -52 2 -62 -14 -5
-7 -8 -1 -8 15 0 20 4 26 15 22 11 -5 15 1 15 19 0 14 7 33 17 42 14 14 14 18
2 26 -10 6 -10 9 -1 9 6 0 12 8 12 19 0 12 -9 20 -27 24 -31 6 -63 57 -37 57
8 0 14 7 14 16 0 9 6 14 13 11 6 -2 11 -14 10 -26 -2 -12 3 -21 11 -21 16 0
29 55 29 117 0 54 -8 74 -28 67 -8 -3 -15 -1 -15 5 0 15 -23 14 -38 -1 -21
-21 -47 -16 -48 8 -1 15 3 21 12 17 17 -6 18 5 2 40 -7 15 -20 27 -28 26 -33
-3 -34 2 -2 21 33 20 42 45 20 52 -10 4 -10 10 0 32 7 15 17 24 23 20 7 -4 9
2 7 17 -4 29 -28 37 -34 12 -6 -22 -44 -29 -44 -7 0 18 -19 18 -26 0 -3 -8
-12 -12 -20 -9 -19 7 -18 23 1 23 20 0 19 26 -1 34 -10 4 -13 13 -9 26 4 12 1
28 -7 37 -9 12 -9 15 0 9 13 -8 16 11 6 38 -8 21 -24 20 -24 -1 0 -9 -3 -13
-7 -10 -3 4 -12 2 -19 -4 -10 -8 -15 -8 -18 2 -2 8 -7 23 -12 34 -14 39 -14
55 1 55 8 0 15 -7 15 -15 0 -8 7 -15 15 -15 9 0 12 6 9 15 -4 8 -10 15 -15 15
-5 0 -9 9 -9 19 0 18 -2 18 -29 5 -16 -8 -36 -11 -45 -8 -18 7 -18 7 -20 48
-1 19 -8 30 -19 32 -9 1 -17 -2 -17 -7 0 -20 -20 -7 -26 16 -4 15 -13 25 -24
25 -13 0 -17 5 -13 20 5 17 0 20 -31 20 -23 0 -35 4 -33 13 1 6 -3 11 -10 10
-6 -1 -22 9 -35 22 -13 14 -29 25 -35 25 -7 0 -13 5 -13 11 0 6 -6 9 -14 6 -7
-3 -22 0 -32 8 -11 7 -22 13 -26 14 -22 3 -5 18 41 36 28 11 63 31 78 45 15
14 32 24 36 22 4 -1 10 5 13 13 4 9 19 15 35 15 20 0 29 5 29 16 0 9 -5 12
-12 8 -7 -4 -8 -3 -4 4 4 7 16 12 26 12 10 0 20 8 22 18 2 11 13 17 33 17 24
0 29 4 30 25 0 14 7 33 15 42 13 14 18 14 43 1 27 -13 29 -13 34 6 3 12 9 18
14 15 5 -3 9 4 9 15 0 27 -16 27 -23 0 -6 -22 -27 -18 -22 4 16 71 19 77 36
77 10 0 24 -10 30 -22 12 -23 12 -23 22 7 7 20 7 30 -1 33 -8 2 -8 9 1 23 10
17 9 22 -6 33 -16 13 -16 14 8 20 26 7 34 31 13 38 -7 3 -8 10 -3 17 6 11 10
10 17 -3 11 -20 28 -21 28 -2 0 19 27 14 43 -9 8 -10 19 -15 25 -11 17 10 15
23 -8 46 -20 20 -28 56 -10 45 6 -3 10 1 10 9 0 16 -26 46 -41 46 -5 0 -9 5
-9 10 0 6 9 10 20 10 11 0 20 7 20 15 0 8 5 15 10 15 6 0 10 7 10 15 0 8 -6
15 -14 15 -9 0 -12 7 -9 20 6 23 38 27 47 5 3 -8 14 -15 25 -15 15 0 19 5 14
17 -5 13 -2 15 11 10 26 -10 30 9 27 112 -1 30 -3 33 -26 27 -33 -8 -54 12
-48 47 4 19 13 28 34 32 25 6 29 11 29 41 0 32 -7 39 -37 35 -18 -2 -25 16 -8
23 19 7 19 32 0 40 -8 3 -15 15 -15 26 0 20 1 20 17 5 11 -12 25 -15 48 -11
27 5 33 3 38 -14 3 -11 10 -20 16 -20 10 0 13 8 15 55 1 16 7 19 29 17 19 -2
27 2 27 13 0 8 7 15 15 15 8 0 15 7 15 15 0 8 -7 15 -15 15 -14 0 -19 11 -16
38 1 6 -5 12 -14 12 -8 0 -15 4 -15 9 0 5 -3 17 -7 27 -5 14 -2 16 15 12 17
-5 22 -2 22 13 0 21 -20 25 -38 7 -9 -9 -12 -9 -12 0 0 7 -9 12 -20 12 -11 0
-20 5 -20 11 0 6 -9 8 -21 4 -15 -5 -19 -4 -15 4 4 6 0 11 -8 11 -9 0 -18 -11
-22 -24 -3 -14 -13 -27 -21 -30 -12 -5 -13 0 -8 27 4 17 12 37 17 44 5 6 11
23 14 37 4 22 1 26 -21 26 -16 0 -24 4 -19 11 3 6 15 8 26 6 32 -9 48 3 48 34
0 16 5 29 10 29 6 0 10 7 10 15 0 8 -7 15 -15 15 -8 0 -15 9 -15 20 0 25 -9
25 -26 3 -19 -26 -29 -8 -27 47 2 52 -9 69 -31 51 -11 -9 -12 -6 -8 14 2 15 0
25 -7 25 -6 0 -11 10 -11 22 0 16 3 19 11 11 6 -6 18 -9 27 -6 11 5 13 3 7 -7
-6 -10 -3 -12 12 -8 11 3 28 -1 38 -8 16 -12 20 -11 33 7 10 15 11 24 3 32
-14 14 -14 27 -1 27 6 0 10 -8 10 -17 0 -13 3 -14 11 -6 9 9 15 8 26 -3 19
-19 38 -7 21 14 -10 12 -10 16 -1 19 9 3 10 10 3 24 -7 13 -7 19 0 19 5 0 10
11 10 25 0 24 9 30 38 26 6 -1 17 10 22 24 5 14 14 25 20 25 5 0 10 9 10 21 0
12 -4 17 -11 14 -6 -4 -13 2 -16 13 -5 20 -21 32 -51 38 -9 1 -12 -4 -9 -15 2
-11 -1 -18 -9 -18 -8 0 -14 6 -14 14 0 7 -4 13 -9 13 -5 0 -7 9 -4 19 4 15 -1
20 -19 23 l-23 3 22 22 c26 26 21 64 -9 60 -11 -2 -24 -10 -29 -18 -6 -10 -9
-10 -9 -1 0 6 -7 12 -17 12 -9 0 -13 -3 -10 -7 14 -13 -14 -33 -33 -23 -23 13
-50 3 -51 -19 0 -13 -2 -13 -8 2 -4 10 -10 18 -15 18 -10 0 -56 -88 -56 -107
0 -7 -4 -14 -10 -14 -6 0 -10 31 -10 73 0 43 -5 78 -12 85 -8 8 -8 12 -1 12
16 0 13 98 -4 104 -7 3 -13 0 -13 -7 0 -8 -4 -7 -10 3 -9 13 -12 12 -25 -4
-15 -19 -15 -19 -15 3 0 17 -4 22 -16 17 -10 -4 -14 -1 -12 6 3 7 18 15 34 18
27 5 29 9 29 47 0 23 3 45 8 49 4 4 7 -5 7 -19 0 -18 5 -27 16 -27 14 0 15 -2
3 -17 -12 -15 -12 -16 4 -10 10 4 22 7 26 7 4 0 8 7 8 15 0 8 -6 15 -14 15
-12 0 -16 10 -10 28 1 4 5 6 8 5 10 -3 17 54 9 68 -5 7 -11 6 -21 -4 -12 -11
-17 -12 -27 -1 -7 7 -12 18 -12 24 0 5 -7 10 -15 10 -17 0 -20 -25 -5 -35 6
-3 10 -11 10 -16 0 -15 -38 -1 -61 22 -17 17 -21 18 -34 5 -8 -8 -15 -18 -15
-23 0 -5 -9 -9 -20 -9 -12 0 -20 7 -20 17 0 10 -5 19 -11 21 -7 2 -9 13 -5 26
6 17 13 21 26 17 15 -5 18 -1 16 17 -1 13 -6 29 -10 36 -4 8 -1 12 11 12 17 1
17 1 1 14 -10 7 -18 18 -18 25 0 6 -3 11 -8 11 -10 0 -55 -31 -63 -43 -9 -13
-23 13 -25 44 -1 15 -4 34 -7 43 -8 19 -27 21 -27 3 0 -27 -31 -14 -37 15 -4
20 -11 28 -22 25 -9 -1 -26 7 -38 20 -12 13 -27 23 -33 23 -5 0 -10 5 -10 10
0 14 51 4 62 -12 6 -11 10 -11 16 0 5 7 13 12 18 11 29 -5 43 2 37 19 -6 15
-5 15 12 -2 15 -15 20 -16 23 -5 11 40 15 43 22 14 7 -27 9 -28 15 -10 3 12
16 25 28 30 13 6 22 19 22 32 1 30 11 38 53 38 29 0 37 4 36 17 -1 10 2 16 6
13 5 -3 12 0 15 6 4 5 13 8 21 5 8 -3 14 1 14 10 0 11 -6 15 -20 11 -20 -5
-25 5 -22 46 1 10 -5 17 -16 17 -11 0 -18 8 -19 21 -1 14 3 19 12 15 16 -6 24
4 30 34 3 14 -2 20 -15 20 -10 0 -22 9 -25 20 -4 11 -11 18 -16 15 -5 -4 -9 3
-9 14 0 14 5 19 15 15 8 -4 15 -1 15 5 0 6 5 11 11 11 6 0 18 7 26 16 13 12
14 20 6 33 -7 11 -8 23 -2 32 7 11 9 10 9 -4 0 -10 4 -16 9 -12 5 3 7 21 4 40
-5 30 -3 34 11 29 20 -8 21 3 2 21 -14 15 -56 17 -56 3 0 -4 -14 -8 -31 -8
-17 0 -28 4 -24 10 3 6 -3 10 -14 10 -10 0 -26 3 -35 6 -12 4 -16 0 -16 -16 0
-11 -4 -18 -10 -15 -5 3 -10 -3 -10 -14 0 -27 -2 -27 -39 8 -19 18 -32 40 -32
58 -2 23 -2 24 -6 5 -2 -12 -9 -20 -14 -17 -5 4 -12 0 -15 -8 -3 -9 -13 -13
-25 -10 -10 3 -19 0 -19 -6 0 -6 -4 -11 -10 -11 -5 0 -10 9 -10 20 0 11 5 20
10 20 6 0 10 7 10 15 0 9 -6 15 -12 14 -26 -3 -38 1 -38 15 0 8 6 17 13 19 8
4 9 8 1 14 -6 4 -14 17 -18 27 -11 31 -31 2 -27 -40 2 -29 -1 -36 -19 -41 -17
-4 -21 -12 -18 -36 2 -18 -2 -32 -9 -34 -7 -3 -13 2 -13 11 0 13 -4 13 -29 -2
-28 -16 -31 -15 -50 2 -21 19 -21 19 -23 -10 0 -16 0 -41 1 -56 1 -14 -2 -29
-8 -32 -5 -3 -7 3 -4 14 6 21 -11 28 -22 10 -4 -6 -16 -8 -27 -4 -18 5 -20 3
-13 -12 8 -18 10 -102 5 -149 -1 -11 1 -36 6 -55 6 -31 6 -33 -7 -20 -19 21
-38 52 -45 72 -3 9 -14 18 -25 21 -11 3 -19 14 -19 25 0 12 -10 28 -22 36 -26
19 -52 21 -42 4 4 -7 3 -8 -4 -4 -8 5 -5 17 8 41 19 34 19 36 1 54 -18 18 -19
18 -46 -5 -33 -28 -30 -27 -53 -13 -16 10 -17 19 -11 62 5 27 11 52 15 56 4 3
4 -6 2 -21 -4 -19 -1 -28 8 -28 8 0 14 7 14 15 0 8 7 15 15 15 9 0 12 6 9 15
-4 8 -12 15 -20 15 -8 0 -14 7 -14 15 0 8 -6 15 -14 15 -8 0 -17 6 -19 13 -4
8 -8 8 -14 2 -10 -12 -44 -19 -42 -8 4 21 -3 29 -25 31 -31 2 -42 -25 -20 -49
11 -13 13 -19 5 -19 -7 0 -20 -8 -29 -17 -16 -16 -17 -16 -20 0 -2 9 -10 17
-19 17 -12 0 -13 3 -3 15 9 11 8 18 -9 36 -18 19 -21 20 -27 6 -3 -9 -12 -13
-21 -10 -11 4 -14 2 -11 -8 3 -8 12 -13 19 -11 11 3 11 1 2 -8 -9 -10 -17 -9
-34 4 -13 9 -35 16 -49 17 -20 1 -16 3 15 12 37 11 40 14 37 45 -2 24 1 32 12
32 9 0 16 -4 16 -10 0 -5 7 -7 15 -4 18 7 19 41 3 77 -17 35 -38 35 -39 0 -1
-21 -2 -23 -6 -8 -3 11 -9 24 -14 30 -16 17 -9 33 17 39 29 8 27 31 -3 30 -10
0 -25 6 -32 13 -9 10 -8 13 10 13 17 0 19 3 10 13 -7 10 -7 17 0 24 16 16 -7
26 -31 13 -12 -6 -20 -21 -20 -35 0 -33 -13 -32 -39 3 -11 15 -21 21 -21 15 0
-7 -9 -22 -20 -33 -11 -11 -20 -27 -20 -35 0 -16 -5 -17 -35 -6 -17 7 -16 8 8
15 23 6 28 11 25 34 -3 23 -8 27 -33 26 -25 0 -30 -4 -28 -22 2 -12 -1 -22 -6
-22 -5 0 -7 -21 -4 -47 3 -35 2 -44 -6 -33 -9 13 -12 12 -25 -5 -11 -15 -11
-22 -3 -27 9 -6 8 -8 -1 -8 -8 0 -10 -5 -6 -12 6 -10 4 -10 -7 0 -7 6 -21 12
-31 12 -20 0 -23 11 -7 27 8 8 5 14 -10 22 -12 7 -21 18 -21 26 0 10 -9 14
-25 13 -14 -1 -25 -6 -25 -11 0 -15 -25 -34 -39 -29 -7 2 -17 -2 -22 -9 -7
-11 -9 -10 -9 4 0 11 9 21 20 24 25 7 19 39 -12 65 -25 22 -15 40 18 32 31 -8
30 -4 -6 59 -16 29 -30 46 -30 40 0 -7 -7 -13 -16 -13 -8 0 -12 5 -9 10 8 14
-6 12 -26 -3 -9 -7 -15 -20 -13 -29 1 -10 -2 -20 -7 -24 -5 -3 -9 -14 -9 -24
0 -26 -19 -35 -33 -16 -8 11 -16 13 -27 6 -12 -8 -13 -13 -2 -30 7 -12 8 -20
2 -20 -5 0 -9 -5 -8 -12 2 -6 -5 -14 -14 -16 -14 -3 -18 3 -18 22 0 28 -9 33
-28 14 -9 -9 -12 -6 -12 14 0 18 5 25 17 24 16 -1 19 7 14 45 0 7 -13 9 -31 7
-23 -4 -30 -1 -30 12 0 14 -9 17 -39 16 -45 -2 -62 -13 -41 -26 10 -7 11 -10
3 -10 -7 0 -13 -9 -13 -20 0 -10 -9 -24 -19 -30 -23 -12 -53 -14 -35 -2 11 6
18 49 15 77 -1 6 -11 -1 -22 -15 -14 -17 -19 -19 -15 -7 3 11 0 20 -9 23 -8 4
-15 12 -15 20 0 8 -6 11 -15 8 -18 -7 -21 -70 -3 -76 7 -3 6 -7 -5 -11 -12 -5
-17 -1 -17 13 0 13 -9 22 -25 26 -14 3 -25 10 -25 15 0 5 -9 9 -20 9 -11 0
-20 -7 -20 -15 0 -8 -4 -15 -10 -15 -5 0 -10 7 -10 15 0 8 -4 15 -10 15 -5 0
-10 -4 -10 -9 0 -18 -33 -21 -51 -6 -15 14 -18 15 -26 2 -6 -11 -32 -16 -101
-18 -50 -2 -92 -1 -92 4 0 4 10 7 23 7 13 0 27 3 31 8 4 4 16 8 27 8 37 3 40
4 33 16 -4 6 -3 8 3 5 20 -13 63 17 63 43 0 18 3 21 9 11 12 -19 31 -4 31 25
0 13 4 24 8 24 5 0 7 -13 4 -30 -6 -41 11 -38 27 5 8 24 9 40 2 54 -8 14 -7
20 4 25 8 3 17 1 20 -4 4 -6 1 -10 -4 -10 -6 0 -11 -5 -11 -11 0 -6 7 -8 16
-5 12 5 14 1 9 -15 -5 -16 -3 -20 6 -17 8 3 14 18 14 33 1 22 7 31 28 38 15 5
27 12 27 16 0 16 -13 19 -31 8 -25 -16 -34 -3 -23 35 9 30 13 33 47 33 23 0
42 6 47 15 14 22 12 31 -7 28 -12 -2 -19 4 -21 20 -2 12 -11 22 -20 23 -13 0
-11 3 5 9 21 9 24 24 10 46 -7 12 21 24 55 24 26 0 72 50 58 64 -8 8 -12 5
-17 -12 -4 -17 -8 -20 -19 -11 -13 11 -40 78 -36 92 1 4 -3 7 -9 7 -6 0 -9 -9
-6 -19 3 -13 1 -18 -8 -14 -17 6 -15 41 2 47 17 7 17 36 1 38 -7 0 -17 2 -23
3 -5 2 -14 3 -20 4 -5 1 -4 5 3 9 9 7 6 15 -14 37 -19 21 -21 26 -7 21 44 -18
73 -19 73 -3 0 8 6 17 12 19 10 4 10 10 1 31 -11 23 -10 27 3 27 8 0 18 8 21
18 4 9 11 20 17 24 6 4 7 10 3 15 -5 4 -12 1 -17 -6 -12 -20 -74 5 -65 27 4
12 -1 13 -26 8 -17 -3 -40 -6 -50 -6 -11 0 -19 -7 -19 -15 0 -8 -7 -15 -15
-15 -13 0 -14 4 -4 21 10 20 9 21 -10 16 -12 -3 -20 -2 -18 1 2 4 9 19 17 34
16 33 5 51 -15 25 -7 -10 -15 -15 -18 -10 -8 14 2 78 12 81 19 6 12 22 -9 22
-11 0 -20 -4 -20 -10 0 -15 -30 -12 -30 3 -1 8 -5 7 -13 -4 -7 -9 -18 -14 -26
-11 -10 3 -12 0 -8 -12 4 -11 3 -15 -4 -11 -6 4 -8 14 -4 23 8 20 -14 33 -37
21 -14 -7 -18 -6 -18 6 0 9 -9 15 -23 15 -13 0 -28 5 -35 12 -8 8 -12 8 -12 1
0 -6 -11 -8 -26 -5 l-27 5 24 13 c13 7 32 13 41 14 14 0 16 6 12 29 -3 16 -1
32 5 35 7 5 7 14 -1 32 -7 16 -8 28 -2 32 5 4 9 18 9 32 0 19 -5 25 -22 24
-13 0 -23 5 -23 13 0 7 -4 13 -9 13 -5 0 -17 7 -26 17 -14 14 -18 14 -26 2 -7
-9 -8 -5 -3 14 4 20 1 34 -11 47 -22 24 -44 25 -67 1z m-608 -971 c0 -5 -2
-10 -4 -10 -3 0 -8 5 -11 10 -3 6 -1 10 4 10 6 0 11 -4 11 -10z m57 -206 c-3
-3 -12 -4 -19 -1 -8 3 -5 6 6 6 11 1 17 -2 13 -5z m23 -14 c0 -5 -5 -10 -11
-10 -5 0 -7 5 -4 10 3 6 8 10 11 10 2 0 4 -4 4 -10z m1525 -189 c3 -5 1 -12
-5 -16 -5 -3 -10 1 -10 9 0 18 6 21 15 7z m42 -38 c-3 -10 -5 -4 -5 12 0 17 2
24 5 18 2 -7 2 -21 0 -30z m-1757 -29 c0 -8 -4 -12 -10 -9 -5 3 -10 13 -10 21
0 8 5 12 10 9 6 -3 10 -13 10 -21z m-631 -48 c-2 -1 -17 1 -34 5 -16 4 -22 7
-12 8 9 0 17 6 17 12 0 6 7 3 16 -6 9 -9 15 -17 13 -19z m51 -37 c0 -6 -4 -7
-10 -4 -5 3 -10 11 -10 16 0 6 5 7 10 4 6 -3 10 -11 10 -16z m-970 -119 c0 -5
-2 -10 -4 -10 -3 0 -8 5 -11 10 -3 6 -1 10 4 10 6 0 11 -4 11 -10z m4825 -600
c3 -5 1 -10 -4 -10 -6 0 -11 5 -11 10 0 6 2 10 4 10 3 0 8 -4 11 -10z m-5498
-292 c-3 -8 -6 -5 -6 6 -1 11 2 17 5 13 3 -3 4 -12 1 -19z m5917 -523 c-4 -8
-11 -15 -16 -15 -6 0 -5 6 2 15 7 8 14 15 16 15 2 0 1 -7 -2 -15z m-94 -9 c0
-11 -19 -15 -25 -6 -3 5 1 10 9 10 9 0 16 -2 16 -4z m-60 -316 c0 -5 -4 -10
-9 -10 -6 0 -13 5 -16 10 -3 6 1 10 9 10 9 0 16 -4 16 -10z m-7550 -304 c0 -3
-4 -8 -10 -11 -5 -3 -10 -1 -10 4 0 6 5 11 10 11 6 0 10 -2 10 -4z m-185 -26
c3 -5 2 -10 -4 -10 -5 0 -13 5 -16 10 -3 6 -2 10 4 10 5 0 13 -4 16 -10z m595
-220 c0 -5 -4 -10 -10 -10 -5 0 -10 5 -10 10 0 6 5 10 10 10 6 0 10 -4 10 -10z
m415 -420 c3 -5 1 -10 -4 -10 -6 0 -11 5 -11 10 0 6 2 10 4 10 3 0 8 -4 11
-10z m-2865 -500 c0 -5 -4 -10 -9 -10 -6 0 -13 5 -16 10 -3 6 1 10 9 10 9 0
16 -4 16 -10z m220 -800 c0 -5 -5 -10 -11 -10 -5 0 -7 -5 -3 -12 4 -7 3 -8 -4
-4 -6 4 -9 13 -5 21 6 17 23 20 23 5z m2655 -380 c3 -5 -1 -10 -9 -10 -9 0
-16 5 -16 10 0 6 4 10 9 10 6 0 13 -4 16 -10z m275 0 c0 -5 -2 -10 -4 -10 -3
0 -8 5 -11 10 -3 6 -1 10 4 10 6 0 11 -4 11 -10z m6530 -229 c0 -6 -4 -13 -10
-16 -5 -3 -10 1 -10 9 0 9 5 16 10 16 6 0 10 -4 10 -9z m-8870 -157 c0 -2 -7
-4 -15 -4 -8 0 -15 4 -15 10 0 5 7 7 15 4 8 -4 15 -8 15 -10z m1710 6 c0 -5
-4 -10 -10 -10 -5 0 -10 5 -10 10 0 6 5 10 10 10 6 0 10 -4 10 -10z m70 -10
c0 -5 -7 -7 -15 -4 -8 4 -15 8 -15 10 0 2 7 4 15 4 8 0 15 -4 15 -10z m-140
-30 c0 -5 -4 -10 -10 -10 -5 0 -10 5 -10 10 0 6 5 10 10 10 6 0 10 -4 10 -10z
m7205 -230 c3 -5 1 -10 -4 -10 -6 0 -11 5 -11 10 0 6 2 10 4 10 3 0 8 -4 11
-10z m-8380 -20 c3 -5 1 -10 -4 -10 -6 0 -11 5 -11 10 0 6 2 10 4 10 3 0 8 -4
11 -10z m8412 -82 c-3 -8 -6 -5 -6 6 -1 11 2 17 5 13 3 -3 4 -12 1 -19z m53
-218 c0 -5 -4 -10 -10 -10 -5 0 -10 5 -10 10 0 6 5 10 10 10 6 0 10 -4 10 -10z
m-6230 -50 c0 -5 -4 -10 -9 -10 -6 0 -13 5 -16 10 -3 6 1 10 9 10 9 0 16 -4
16 -10z m6250 -285 c0 -12 -19 -12 -23 0 -4 9 -1 12 9 8 7 -3 14 -7 14 -8z
m-6134 -462 c-11 -11 -19 6 -11 24 8 17 8 17 12 0 3 -10 2 -21 -1 -24z m-89
-35 c-3 -8 -6 -5 -6 6 -1 11 2 17 5 13 3 -3 4 -12 1 -19z m260 0 c-3 -8 -6 -5
-6 6 -1 11 2 17 5 13 3 -3 4 -12 1 -19z m33 -23 c0 -8 -2 -15 -4 -15 -2 0 -6
7 -10 15 -3 8 -1 15 4 15 6 0 10 -7 10 -15z m5500 -285 c0 -5 -4 -10 -10 -10
-5 0 -10 5 -10 10 0 6 5 10 10 10 6 0 10 -4 10 -10z m-5020 -474 c0 -3 -4 -8
-10 -11 -5 -3 -10 -1 -10 4 0 6 5 11 10 11 6 0 10 -2 10 -4z m4000 -6 c0 -5
-2 -10 -4 -10 -3 0 -8 5 -11 10 -3 6 -1 10 4 10 6 0 11 -4 11 -10z m-2480
-274 c0 -3 -4 -8 -10 -11 -5 -3 -10 -1 -10 4 0 6 5 11 10 11 6 0 10 -2 10 -4z
m-410 -16 c0 -5 -7 -10 -16 -10 -8 0 -12 5 -9 10 3 6 10 10 16 10 5 0 9 -4 9
-10z m626 -57 c-10 -10 -19 5 -10 18 6 11 8 11 12 0 2 -7 1 -15 -2 -18z m889
-23 c16 -7 14 -8 -12 -7 -17 1 -29 5 -26 10 5 9 12 8 38 -3z m827 -32 c-9 -9
-12 -7 -12 12 0 19 3 21 12 12 9 -9 9 -15 0 -24z m-1787 2 c3 -5 1 -10 -4 -10
-6 0 -11 5 -11 10 0 6 2 10 4 10 3 0 8 -4 11 -10z m273 -195 c-2 -1 -16 -5
-33 -9 -28 -7 -28 -6 -11 7 13 9 16 19 11 28 -5 8 1 5 13 -5 12 -11 21 -20 20
-21z"/>
<path d="M7560 10660 c0 -5 7 -10 15 -10 8 0 15 5 15 10 0 6 -7 10 -15 10 -8
0 -15 -4 -15 -10z"/>
<path d="M7605 10609 c-10 -15 3 -25 16 -12 7 7 7 13 1 17 -6 3 -14 1 -17 -5z"/>
<path d="M7780 10597 c0 -8 7 -14 15 -14 8 0 15 6 15 14 0 7 -7 13 -15 13 -8
0 -15 -6 -15 -13z"/>
<path d="M7657 10584 c-8 -8 1 -24 13 -24 4 0 10 7 14 15 5 15 -14 21 -27 9z"/>
<path d="M7265 10510 c3 -5 8 -10 11 -10 2 0 4 5 4 10 0 6 -5 10 -11 10 -5 0
-7 -4 -4 -10z"/>
<path d="M7686 10464 c-11 -28 -6 -39 9 -20 8 11 15 23 15 28 0 14 -18 9 -24
-8z"/>
<path d="M6775 10460 c-3 -5 1 -10 10 -10 9 0 13 5 10 10 -3 6 -8 10 -10 10
-2 0 -7 -4 -10 -10z"/>
<path d="M7106 10403 c-3 -10 -9 -24 -12 -30 -3 -7 1 -13 9 -13 9 0 14 11 15
30 1 34 -3 38 -12 13z"/>
<path d="M8236 10401 c-4 -7 -5 -15 -2 -18 9 -9 19 4 14 18 -4 11 -6 11 -12 0z"/>
<path d="M6571 10364 c0 -11 3 -14 6 -6 3 7 2 16 -1 19 -3 4 -6 -2 -5 -13z"/>
<path d="M7730 10360 c0 -5 5 -10 10 -10 6 0 10 5 10 10 0 6 -4 10 -10 10 -5
0 -10 -4 -10 -10z"/>
<path d="M7850 10336 c0 -9 5 -16 10 -16 6 0 10 4 10 9 0 6 -4 13 -10 16 -5 3
-10 -1 -10 -9z"/>
<path d="M6916 10315 c4 -8 8 -15 10 -15 2 0 4 7 4 15 0 8 -4 15 -10 15 -5 0
-7 -7 -4 -15z"/>
<path d="M6950 10289 c0 -18 2 -19 15 -5 8 8 15 17 15 20 0 3 -7 6 -15 6 -9 0
-15 -9 -15 -21z"/>
<path d="M6775 10270 c-3 -5 1 -10 9 -10 8 0 18 5 21 10 3 6 -1 10 -9 10 -8 0
-18 -4 -21 -10z"/>
<path d="M6800 10240 c0 -5 5 -10 11 -10 5 0 7 5 4 10 -3 6 -8 10 -11 10 -2 0
-4 -4 -4 -10z"/>
<path d="M6790 10205 c0 -8 2 -15 4 -15 2 0 6 7 10 15 3 8 1 15 -4 15 -6 0
-10 -7 -10 -15z"/>
<path d="M8100 10150 c0 -5 7 -10 15 -10 8 0 15 5 15 10 0 6 -7 10 -15 10 -8
0 -15 -4 -15 -10z"/>
<path d="M6790 10115 c0 -8 9 -15 20 -15 11 0 20 5 20 11 0 6 -7 8 -16 5 -8
-3 -12 -2 -9 4 3 6 1 10 -4 10 -6 0 -11 -7 -11 -15z"/>
<path d="M8110 10110 c0 -5 7 -10 16 -10 8 0 12 5 9 10 -3 6 -10 10 -16 10 -5
0 -9 -4 -9 -10z"/>
<path d="M8086 10011 c-4 -7 -5 -15 -2 -18 9 -9 19 4 14 18 -4 11 -6 11 -12 0z"/>
<path d="M6670 9986 c0 -9 5 -16 10 -16 6 0 10 4 10 9 0 6 -4 13 -10 16 -5 3
-10 -1 -10 -9z"/>
<path d="M6707 9963 c-12 -11 -8 -23 8 -23 8 0 15 7 15 15 0 16 -12 20 -23 8z"/>
<path d="M6772 9929 c2 -6 8 -10 13 -10 5 0 11 4 13 10 2 6 -4 11 -13 11 -9 0
-15 -5 -13 -11z"/>
<path d="M8145 9909 c-4 -6 -5 -13 -2 -16 7 -7 27 6 27 18 0 12 -17 12 -25 -2z"/>
<path d="M6680 9895 c0 -8 5 -15 10 -15 6 0 10 7 10 15 0 8 -4 15 -10 15 -5 0
-10 -7 -10 -15z"/>
<path d="M8200 9876 c0 -9 5 -16 10 -16 6 0 10 4 10 9 0 6 -4 13 -10 16 -5 3
-10 -1 -10 -9z"/>
<path d="M8152 9829 c-8 -12 -10 -25 -5 -30 14 -14 30 5 24 29 l-6 22 -13 -21z"/>
<path d="M6775 9771 c-6 -11 9 -23 19 -14 9 9 7 23 -3 23 -6 0 -12 -4 -16 -9z"/>
<path d="M6760 9722 c0 -18 12 -42 21 -42 14 0 11 20 -6 36 -8 9 -15 11 -15 6z"/>
<path d="M6704 9709 c-3 -6 -1 -16 5 -22 6 -6 11 -9 12 -6 0 2 2 12 4 22 4 19
-10 23 -21 6z"/>
<path d="M8080 9651 c-16 -31 -12 -51 10 -51 11 0 20 5 20 10 0 6 -4 10 -9 10
-4 0 -6 11 -3 25 5 30 -3 33 -18 6z"/>
<path d="M6060 9420 c0 -5 7 -10 15 -10 8 0 15 -9 15 -21 0 -11 4 -18 9 -15
19 12 -1 56 -25 56 -8 0 -14 -4 -14 -10z"/>
<path d="M5900 9365 c0 -9 9 -19 20 -22 24 -6 26 -19 5 -27 -8 -3 -15 -12 -15
-19 0 -8 7 -14 15 -14 8 0 15 4 15 9 0 4 9 17 21 29 15 15 18 24 10 32 -8 8
-11 7 -11 -3 0 -10 -4 -10 -17 2 -32 27 -43 30 -43 13z"/>
<path d="M6040 9365 c-7 -9 -10 -18 -7 -21 10 -11 37 5 37 21 0 19 -14 19 -30
0z"/>
<path d="M8930 9365 c0 -8 7 -15 16 -15 8 0 12 -4 9 -10 -3 -5 -1 -10 4 -10
15 0 14 19 -3 36 -19 18 -26 18 -26 -1z"/>
<path d="M4873 9363 c-16 -6 -17 -33 -3 -33 11 0 26 28 19 34 -2 2 -10 1 -16
-1z"/>
<path d="M5060 9360 c-12 -7 -12 -12 -2 -22 9 -9 15 -9 24 0 16 16 -2 34 -22
22z"/>
<path d="M8200 9336 c0 -8 5 -18 10 -21 6 -3 10 3 10 14 0 12 -4 21 -10 21 -5
0 -10 -6 -10 -14z"/>
<path d="M4662 9318 c7 -19 35 -21 35 -3 0 8 -9 15 -19 15 -11 0 -18 -5 -16
-12z"/>
<path d="M5973 9314 c-3 -8 -1 -20 6 -27 8 -8 11 -8 11 0 0 7 9 15 20 18 28 9
25 25 -5 25 -14 0 -28 -7 -32 -16z"/>
<path d="M8400 9320 c0 -5 5 -10 10 -10 6 0 10 5 10 10 0 6 -4 10 -10 10 -5 0
-10 -4 -10 -10z"/>
<path d="M8810 9314 c0 -11 5 -14 16 -10 9 3 20 6 25 6 5 0 9 5 9 10 0 6 -11
10 -25 10 -16 0 -25 -6 -25 -16z"/>
<path d="M6140 9299 c0 -11 5 -17 10 -14 6 3 10 13 10 21 0 8 -4 14 -10 14 -5
0 -10 -9 -10 -21z"/>
<path d="M8867 9298 c-6 -21 1 -28 25 -28 10 0 18 -4 18 -10 0 -5 5 -10 10
-10 6 0 10 9 10 20 0 11 -6 19 -12 18 -7 -2 -12 5 -12 14 2 22 -33 19 -39 -4z"/>
<path d="M6010 9290 c0 -11 2 -11 73 -15 32 -2 47 1 44 9 -5 16 -48 20 -58 4
-7 -10 -9 -10 -9 0 0 6 -11 12 -25 12 -14 0 -25 -4 -25 -10z"/>
<path d="M4986 9281 c-9 -13 4 -41 18 -41 15 0 14 42 -1 47 -6 2 -14 0 -17 -6z"/>
<path d="M8390 9271 c0 -12 5 -21 10 -21 6 0 10 6 10 14 0 8 -4 18 -10 21 -5
3 -10 -3 -10 -14z"/>
<path d="M4770 9254 c0 -8 5 -12 10 -9 6 3 10 10 10 16 0 5 -4 9 -10 9 -5 0
-10 -7 -10 -16z"/>
<path d="M5875 9249 c-9 -26 11 -50 21 -26 3 9 17 17 29 17 13 0 27 5 30 11
11 17 0 20 -29 10 -17 -7 -26 -7 -26 -1 0 18 -19 10 -25 -11z"/>
<path d="M8940 9260 c0 -5 9 -10 20 -10 11 0 23 0 27 -1 4 0 9 4 11 10 2 6
-10 11 -27 11 -17 0 -31 -4 -31 -10z"/>
<path d="M4920 9250 c0 -5 5 -10 10 -10 6 0 10 5 10 10 0 6 -4 10 -10 10 -5 0
-10 -4 -10 -10z"/>
<path d="M8574 9244 c3 -9 6 -20 6 -25 0 -5 5 -9 10 -9 6 0 10 11 10 25 0 16
-6 25 -16 25 -11 0 -14 -5 -10 -16z"/>
<path d="M9050 9249 c0 -5 5 -7 10 -4 6 3 10 8 10 11 0 2 -4 4 -10 4 -5 0 -10
-5 -10 -11z"/>
<path d="M4862 9220 c1 -17 6 -30 14 -30 8 0 12 12 12 30 -1 17 -6 30 -14 30
-8 0 -12 -12 -12 -30z"/>
<path d="M9000 9225 c0 -8 5 -15 10 -15 6 0 10 7 10 15 0 8 -4 15 -10 15 -5 0
-10 -7 -10 -15z"/>
<path d="M10210 9211 c0 -32 16 -43 43 -29 23 12 22 35 -2 48 -31 16 -41 12
-41 -19z"/>
<path d="M4910 9220 c0 -5 5 -10 10 -10 6 0 10 5 10 10 0 6 -4 10 -10 10 -5 0
-10 -4 -10 -10z"/>
<path d="M5840 9211 c0 -12 6 -21 16 -21 9 0 14 7 12 17 -5 25 -28 28 -28 4z"/>
<path d="M6295 9221 c-6 -11 9 -23 19 -14 9 9 7 23 -3 23 -6 0 -12 -4 -16 -9z"/>
<path d="M8890 9220 c0 -5 5 -10 10 -10 6 0 10 5 10 10 0 6 -4 10 -10 10 -5 0
-10 -4 -10 -10z"/>
<path d="M9050 9201 c0 -20 25 -51 41 -51 15 0 10 15 -11 33 -12 10 -18 22
-15 27 3 6 1 10 -4 10 -6 0 -11 -9 -11 -19z"/>
<path d="M4820 9176 c0 -9 7 -16 16 -16 17 0 14 22 -4 28 -7 2 -12 -3 -12 -12z"/>
<path d="M5810 9175 c0 -8 7 -15 15 -15 9 0 12 6 9 15 -4 8 -10 15 -15 15 -5
0 -9 -7 -9 -15z"/>
<path d="M9125 9169 c-10 -15 3 -25 16 -12 7 7 7 13 1 17 -6 3 -14 1 -17 -5z"/>
<path d="M8706 9145 c-3 -9 0 -15 9 -15 16 0 20 16 6 24 -5 3 -11 -1 -15 -9z"/>
<path d="M5120 9120 c0 -5 5 -10 10 -10 6 0 10 5 10 10 0 6 -4 10 -10 10 -5 0
-10 -4 -10 -10z"/>
<path d="M5283 9123 c-13 -5 -6 -31 13 -50 14 -14 38 -18 30 -5 -3 5 4 16 15
25 11 10 17 22 13 28 -4 6 -14 2 -27 -12 -21 -23 -21 -23 -27 -2 -3 11 -10 18
-17 16z"/>
<path d="M4697 9085 c-7 -15 1 -25 20 -25 7 0 13 6 13 14 0 19 -27 28 -33 11z"/>
<path d="M5420 9090 c0 -5 5 -10 10 -10 6 0 10 5 10 10 0 6 -4 10 -10 10 -5 0
-10 -4 -10 -10z"/>
<path d="M5130 9045 c0 -8 5 -15 10 -15 6 0 10 7 10 15 0 8 -4 15 -10 15 -5 0
-10 -7 -10 -15z"/>
<path d="M10234 9040 c0 -11 6 -20 14 -20 7 0 12 8 10 17 -4 24 -24 27 -24 3z"/>
<path d="M5270 9025 c0 -8 5 -15 10 -15 6 0 10 7 10 15 0 8 -4 15 -10 15 -5 0
-10 -7 -10 -15z"/>
<path d="M9670 9025 c0 -8 5 -15 10 -15 6 0 10 7 10 15 0 8 -4 15 -10 15 -5 0
-10 -7 -10 -15z"/>
<path d="M4897 9004 c-7 -7 14 -44 25 -44 5 0 8 11 8 25 0 23 -18 34 -33 19z"/>
<path d="M9760 8987 c0 -15 20 -27 46 -27 8 0 14 7 14 15 0 9 -6 12 -15 9 -8
-4 -22 -1 -30 6 -12 10 -15 10 -15 -3z"/>
<path d="M5475 8957 c-4 -10 -5 -21 -1 -24 10 -10 18 4 13 24 -4 17 -4 17 -12
0z"/>
<path d="M10237 8963 c-3 -5 -2 -15 2 -22 7 -10 10 -10 16 -1 4 6 3 16 -3 22
-5 5 -12 6 -15 1z"/>
<path d="M10360 8949 c0 -18 2 -19 15 -9 15 12 12 30 -6 30 -5 0 -9 -10 -9
-21z"/>
<path d="M9595 8870 c-3 -11 -3 -24 0 -30 12 -19 22 -10 23 20 1 34 -13 40
-23 10z"/>
<path d="M10215 8859 c-4 -6 -5 -13 -2 -16 7 -7 27 6 27 18 0 12 -17 12 -25
-2z"/>
<path d="M10180 8846 c0 -9 5 -16 10 -16 6 0 10 4 10 9 0 6 -4 13 -10 16 -5 3
-10 -1 -10 -9z"/>
<path d="M10340 8835 c0 -8 5 -15 10 -15 6 0 10 7 10 15 0 8 -4 15 -10 15 -5
0 -10 -7 -10 -15z"/>
<path d="M4770 8825 c0 -8 5 -15 10 -15 6 0 10 7 10 15 0 8 -4 15 -10 15 -5 0
-10 -7 -10 -15z"/>
<path d="M4820 8810 c0 -5 7 -10 15 -10 8 0 15 5 15 10 0 6 -7 10 -15 10 -8 0
-15 -4 -15 -10z"/>
<path d="M4845 8794 c-17 -13 -18 -16 -5 -24 10 -6 20 -5 30 5 21 22 0 37 -25
19z"/>
<path d="M4775 8766 c-6 -13 -4 -21 3 -24 7 -2 12 -10 12 -17 0 -7 7 -16 16
-19 8 -3 12 -10 9 -16 -3 -5 -1 -10 4 -10 18 0 12 38 -8 52 -10 7 -21 22 -23
33 -5 20 -5 20 -13 1z"/>
<path d="M10395 8771 c-6 -11 9 -23 19 -14 9 9 7 23 -3 23 -6 0 -12 -4 -16 -9z"/>
<path d="M9260 8750 c0 -5 5 -10 10 -10 6 0 10 5 10 10 0 6 -4 10 -10 10 -5 0
-10 -4 -10 -10z"/>
<path d="M4822 8739 c2 -6 8 -10 13 -10 5 0 11 4 13 10 2 6 -4 11 -13 11 -9 0
-15 -5 -13 -11z"/>
<path d="M4736 8705 c4 -8 10 -12 15 -9 14 8 10 24 -6 24 -9 0 -12 -6 -9 -15z"/>
<path d="M10140 8700 c0 -13 7 -20 20 -20 24 0 27 25 4 34 -23 9 -24 8 -24
-14z"/>
<path d="M4822 8634 c4 -19 21 -19 24 1 1 8 -4 15 -13 15 -8 0 -13 -7 -11 -16z"/>
<path d="M10080 8629 c0 -11 5 -17 10 -14 6 3 10 13 10 21 0 8 -4 14 -10 14
-5 0 -10 -9 -10 -21z"/>
<path d="M10180 8485 c0 -8 5 -15 10 -15 6 0 10 7 10 15 0 8 -4 15 -10 15 -5
0 -10 -7 -10 -15z"/>
<path d="M10205 8450 c-4 -6 -3 -16 3 -22 6 -6 12 -6 17 2 4 6 3 16 -3 22 -6
6 -12 6 -17 -2z"/>
<path d="M10160 8430 c0 -5 5 -10 10 -10 6 0 10 5 10 10 0 6 -4 10 -10 10 -5
0 -10 -4 -10 -10z"/>
<path d="M4436 8371 c-4 -7 -5 -15 -2 -18 9 -9 19 4 14 18 -4 11 -6 11 -12 0z"/>
<path d="M4352 8358 c6 -18 28 -21 28 -4 0 9 -7 16 -16 16 -9 0 -14 -5 -12
-12z"/>
<path d="M4706 8342 c-3 -6 -1 -14 5 -17 15 -10 25 3 12 16 -7 7 -13 7 -17 1z"/>
<path d="M10039 8343 c-21 -5 -32 -43 -17 -60 17 -21 31 -15 26 12 -4 17 -1
25 8 25 15 0 19 16 7 23 -5 2 -15 2 -24 0z"/>
<path d="M4715 8302 c-16 -11 -16 -30 -1 -35 16 -7 28 14 17 31 -3 6 -11 8
-16 4z"/>
<path d="M4354 8255 c-3 -8 -12 -11 -20 -8 -17 6 -19 -8 -3 -24 15 -15 -9 -42
-30 -35 -10 3 -12 -1 -8 -17 3 -11 1 -21 -4 -21 -5 0 -9 -4 -9 -10 0 -19 32
-10 37 10 3 11 11 20 18 20 19 0 43 32 28 37 -7 3 -13 9 -13 14 0 6 6 9 13 7
21 -4 57 13 57 26 0 18 -60 18 -66 1z"/>
<path d="M4192 8220 c1 -13 9 -25 16 -28 17 -5 15 23 -4 39 -14 11 -15 10 -12
-11z"/>
<path d="M4150 8073 c0 -7 2 -13 4 -13 2 0 11 -3 20 -6 11 -4 16 0 16 13 0 12
-7 19 -20 19 -11 0 -20 -6 -20 -13z"/>
<path d="M4220 8077 c0 -15 33 -57 44 -57 3 0 6 7 6 15 0 8 -4 15 -9 15 -5 0
-13 9 -16 20 -7 23 -25 27 -25 7z"/>
<path d="M4216 7998 c-9 -34 -7 -58 3 -58 6 0 10 8 10 18 -1 9 2 27 6 40 4 13
3 22 -3 22 -5 0 -12 -10 -16 -22z"/>
<path d="M10193 8005 c0 -8 4 -15 9 -15 4 0 8 7 8 15 0 8 -4 15 -8 15 -5 0 -9
-7 -9 -15z"/>
<path d="M10110 7986 c0 -9 5 -16 10 -16 6 0 10 4 10 9 0 6 -4 13 -10 16 -5 3
-10 -1 -10 -9z"/>
<path d="M838 7688 c-7 -19 2 -38 19 -38 9 0 13 8 11 22 -3 25 -23 35 -30 16z"/>
<path d="M4060 7685 c0 -9 5 -15 11 -13 6 2 11 8 11 13 0 5 -5 11 -11 13 -6 2
-11 -4 -11 -13z"/>
<path d="M10710 7636 c0 -29 11 -39 25 -22 16 17 12 40 -7 44 -13 3 -18 -3
-18 -22z"/>
<path d="M3940 7535 c0 -8 5 -15 10 -15 6 0 10 7 10 15 0 8 -4 15 -10 15 -5 0
-10 -7 -10 -15z"/>
<path d="M3970 7500 c0 -5 9 -14 20 -20 11 -6 17 -16 14 -25 -4 -10 0 -15 11
-15 11 0 15 7 13 23 -2 12 -7 20 -12 19 -5 -2 -13 3 -18 12 -10 18 -28 22 -28
6z"/>
<path d="M850 7456 c0 -24 18 -28 30 -6 9 17 8 20 -10 20 -11 0 -20 -6 -20
-14z"/>
<path d="M4045 7453 c-12 -28 -11 -66 1 -70 12 -4 24 27 24 65 0 26 -15 29
-25 5z"/>
<path d="M10622 7454 c2 -10 14 -19 31 -21 29 -4 34 2 15 20 -22 20 -50 21
-46 1z"/>
<path d="M10550 7355 c0 -8 7 -15 15 -15 8 0 15 7 15 15 0 8 -7 15 -15 15 -8
0 -15 -7 -15 -15z"/>
<path d="M2252 7338 c6 -18 25 -21 25 -3 0 8 -7 15 -14 15 -8 0 -13 -5 -11
-12z"/>
<path d="M1130 7299 c0 -11 5 -17 10 -14 6 3 10 13 10 21 0 8 -4 14 -10 14 -5
0 -10 -9 -10 -21z"/>
<path d="M10530 7296 c0 -8 7 -17 16 -20 23 -9 34 -7 34 4 0 6 -7 10 -15 10
-8 0 -15 5 -15 10 0 6 -4 10 -10 10 -5 0 -10 -6 -10 -14z"/>
<path d="M2277 7266 c3 -16 10 -23 20 -19 18 7 13 37 -8 41 -13 2 -15 -3 -12
-22z"/>
<path d="M2397 7265 c-4 -8 -2 -17 3 -20 6 -4 10 3 10 14 0 25 -6 27 -13 6z"/>
<path d="M1440 7250 c0 -5 5 -10 10 -10 6 0 10 5 10 10 0 6 -4 10 -10 10 -5 0
-10 -4 -10 -10z"/>
<path d="M3956 7245 c-6 -17 9 -29 24 -20 14 9 12 22 -4 28 -8 3 -17 -1 -20
-8z"/>
<path d="M1230 7233 c0 -14 34 -35 44 -26 16 16 5 39 -19 39 -14 0 -25 -6 -25
-13z"/>
<path d="M2317 7244 c-8 -8 3 -34 14 -34 11 0 12 27 0 34 -4 3 -11 3 -14 0z"/>
<path d="M2430 7195 c0 -8 2 -15 4 -15 2 0 6 7 10 15 3 8 1 15 -4 15 -6 0 -10
-7 -10 -15z"/>
<path d="M1327 7193 c-13 -12 -7 -43 8 -43 9 0 14 8 12 20 -4 24 -11 32 -20
23z"/>
<path d="M2270 7155 c0 -8 4 -15 10 -15 5 0 7 7 4 15 -4 8 -8 15 -10 15 -2 0
-4 -7 -4 -15z"/>
<path d="M1392 7139 c1 -13 11 -25 20 -27 15 -3 16 1 9 19 -11 32 -34 38 -29
8z"/>
<path d="M2720 7143 c0 -8 5 -13 12 -11 18 6 21 25 3 25 -8 0 -15 -7 -15 -14z"/>
<path d="M2893 7085 c4 -8 2 -17 -3 -20 -15 -9 -12 -25 3 -19 16 6 21 54 6 54
-6 0 -9 -7 -6 -15z"/>
<path d="M3870 7090 c0 -5 5 -10 10 -10 6 0 10 5 10 10 0 6 -4 10 -10 10 -5 0
-10 -4 -10 -10z"/>
<path d="M2542 7034 c1 -9 9 -19 16 -22 9 -3 13 2 10 14 -1 9 -9 19 -16 22 -9
3 -13 -2 -10 -14z"/>
<path d="M2160 7015 c0 -8 5 -15 10 -15 6 0 10 7 10 15 0 8 -4 15 -10 15 -5 0
-10 -7 -10 -15z"/>
<path d="M3100 7005 c0 -8 7 -15 15 -15 8 0 15 7 15 15 0 8 -7 15 -15 15 -8 0
-15 -7 -15 -15z"/>
<path d="M2680 6986 c0 -9 5 -16 10 -16 6 0 10 4 10 9 0 6 -4 13 -10 16 -5 3
-10 -1 -10 -9z"/>
<path d="M1267 6940 c3 -11 9 -17 14 -14 14 8 10 34 -5 34 -9 0 -12 -7 -9 -20z"/>
<path d="M3101 6919 c8 -16 14 -18 22 -10 9 9 8 14 -3 21 -24 16 -31 11 -19
-11z"/>
<path d="M1250 6900 c0 -5 5 -10 11 -10 5 0 7 5 4 10 -3 6 -8 10 -11 10 -2 0
-4 -4 -4 -10z"/>
<path d="M1233 6867 c2 -6 10 -11 16 -9 6 1 11 -2 11 -8 0 -5 5 -10 10 -10 6
0 10 8 10 18 0 12 -9 18 -26 20 -17 1 -24 -2 -21 -11z"/>
<path d="M10500 6866 c0 -9 5 -16 10 -16 6 0 10 4 10 9 0 6 -4 13 -10 16 -5 3
-10 -1 -10 -9z"/>
<path d="M1110 6845 c0 -8 5 -15 10 -15 6 0 10 7 10 15 0 8 -4 15 -10 15 -5 0
-10 -7 -10 -15z"/>
<path d="M3320 6838 c0 -6 -6 -19 -14 -27 -12 -14 -12 -18 0 -29 12 -11 15
-10 20 3 4 9 4 19 1 22 -4 3 -2 14 4 24 6 13 6 19 -1 19 -5 0 -10 -5 -10 -12z"/>
<path d="M10657 6803 c-14 -13 -7 -42 8 -37 8 4 15 15 15 25 0 19 -11 25 -23
12z"/>
<path d="M3240 6777 c0 -9 5 -19 10 -22 6 -4 7 -11 4 -17 -4 -7 -2 -8 4 -4 16
10 15 31 -3 46 -12 10 -15 10 -15 -3z"/>
<path d="M1300 6749 c0 -11 5 -17 10 -14 6 3 10 13 10 21 0 8 -4 14 -10 14 -5
0 -10 -9 -10 -21z"/>
<path d="M10632 6738 c-7 -7 -12 -29 -12 -50 0 -23 -4 -37 -11 -35 -6 1 -14
-4 -16 -10 -3 -7 1 -13 9 -13 21 0 40 16 37 31 -2 8 1 29 5 47 9 38 5 47 -12
30z"/>
<path d="M3414 6655 c4 -24 16 -30 16 -7 0 12 -4 22 -9 22 -5 0 -8 -7 -7 -15z"/>
<path d="M3370 6629 c0 -11 5 -17 10 -14 6 3 10 13 10 21 0 8 -4 14 -10 14 -5
0 -10 -9 -10 -21z"/>
<path d="M3390 6610 c0 -5 4 -10 9 -10 6 0 13 5 16 10 3 6 -1 10 -9 10 -9 0
-16 -4 -16 -10z"/>
<path d="M1170 6581 c0 -6 5 -13 10 -16 6 -3 10 1 10 9 0 9 -4 16 -10 16 -5 0
-10 -4 -10 -9z"/>
<path d="M3460 6523 c1 -13 27 -43 38 -43 12 0 24 29 16 41 -8 14 -26 11 -18
-3 6 -10 4 -10 -7 0 -15 13 -29 16 -29 5z"/>
<path d="M10390 6390 c0 -5 7 -10 15 -10 8 0 15 5 15 10 0 6 -7 10 -15 10 -8
0 -15 -4 -15 -10z"/>
<path d="M10500 6309 c0 -14 -5 -19 -14 -16 -14 5 -36 -31 -36 -58 0 -28 24
-10 47 34 25 49 28 61 13 61 -5 0 -10 -9 -10 -21z"/>
<path d="M10 6155 c0 -8 4 -15 10 -15 5 0 7 7 4 15 -4 8 -8 15 -10 15 -2 0 -4
-7 -4 -15z"/>
<path d="M863 6144 c-17 -17 -16 -24 2 -24 8 0 14 -5 13 -11 -2 -6 3 -14 10
-16 7 -3 12 4 12 16 0 12 -5 21 -11 21 -5 0 -8 4 -4 9 9 16 -9 20 -22 5z"/>
<path d="M910 6091 c0 -12 5 -21 10 -21 6 0 10 6 10 14 0 8 -4 18 -10 21 -5 3
-10 -3 -10 -14z"/>
<path d="M10340 6050 c0 -11 5 -20 10 -20 6 0 10 9 10 20 0 11 -4 20 -10 20
-5 0 -10 -9 -10 -20z"/>
<path d="M171 5954 c0 -11 3 -14 6 -6 3 7 2 16 -1 19 -3 4 -6 -2 -5 -13z"/>
<path d="M457 5943 c-11 -10 -8 -43 3 -43 6 0 10 11 10 25 0 26 -2 29 -13 18z"/>
<path d="M10230 5848 c0 -21 2 -38 4 -38 9 0 12 50 5 62 -6 8 -9 -1 -9 -24z"/>
<path d="M255 5849 c-4 -11 -4 -23 0 -27 7 -7 25 17 25 36 0 20 -18 14 -25 -9z"/>
<path d="M154 5706 c-4 -11 -1 -21 7 -27 17 -11 26 18 10 34 -7 7 -12 5 -17
-7z"/>
<path d="M10232 5090 c0 -14 2 -19 5 -12 2 6 2 18 0 25 -3 6 -5 1 -5 -13z"/>
<path d="M250 5083 c0 -5 4 -15 10 -23 11 -18 25 -7 17 15 -6 15 -27 21 -27 8z"/>
<path d="M590 5044 c0 -8 5 -12 10 -9 6 3 10 10 10 16 0 5 -4 9 -10 9 -5 0
-10 -7 -10 -16z"/>
<path d="M10231 5044 c0 -11 3 -14 6 -6 3 7 2 16 -1 19 -3 4 -6 -2 -5 -13z"/>
<path d="M450 5001 c0 -11 5 -23 10 -26 6 -4 10 5 10 19 0 14 -4 26 -10 26 -5
0 -10 -9 -10 -19z"/>
<path d="M170 4964 c0 -8 5 -12 10 -9 6 4 8 11 5 16 -9 14 -15 11 -15 -7z"/>
<path d="M10345 4877 c-4 -10 -5 -21 -1 -24 10 -10 18 4 13 24 -4 17 -4 17
-12 0z"/>
<path d="M910 4825 c0 -8 5 -15 10 -15 6 0 10 7 10 15 0 8 -4 15 -10 15 -5 0
-10 -7 -10 -15z"/>
<path d="M879 4823 c-1 -5 -1 -11 0 -15 0 -5 -6 -8 -14 -8 -18 0 -20 -27 -2
-33 15 -5 36 21 37 46 0 16 -19 25 -21 10z"/>
<path d="M10 4759 c0 -5 5 -7 10 -4 6 3 10 8 10 11 0 2 -4 4 -10 4 -5 0 -10
-5 -10 -11z"/>
<path d="M10461 4691 c-16 -10 -3 -62 17 -69 15 -5 28 28 15 37 -6 3 -12 14
-14 23 -3 12 -8 15 -18 9z"/>
<path d="M10500 4600 c0 -5 5 -10 10 -10 6 0 10 5 10 10 0 6 -4 10 -10 10 -5
0 -10 -4 -10 -10z"/>
<path d="M1175 4347 c-4 -10 -5 -21 -1 -24 10 -10 18 4 13 24 -4 17 -4 17 -12
0z"/>
<path d="M3451 4344 c0 -11 3 -14 6 -6 3 7 2 16 -1 19 -3 4 -6 -2 -5 -13z"/>
<path d="M3390 4306 c0 -8 4 -17 9 -20 10 -7 23 19 14 28 -11 11 -23 6 -23 -8z"/>
<path d="M3370 4286 c0 -9 5 -16 10 -16 6 0 10 4 10 9 0 6 -4 13 -10 16 -5 3
-10 -1 -10 -9z"/>
<path d="M10590 4271 c0 -11 9 -17 25 -19 16 -1 25 3 25 13 0 8 -3 15 -7 16
-5 0 -16 2 -25 4 -12 2 -18 -3 -18 -14z"/>
<path d="M3416 4271 c-4 -7 -5 -15 -2 -18 9 -9 19 4 14 18 -4 11 -6 11 -12 0z"/>
<path d="M10627 4234 c-11 -11 -8 -52 4 -59 17 -11 21 0 12 35 -5 17 -12 28
-16 24z"/>
<path d="M3250 4165 c-10 -18 -11 -28 -3 -36 8 -8 13 -2 18 21 9 40 2 47 -15
15z"/>
<path d="M1300 4165 c0 -8 5 -15 10 -15 6 0 10 7 10 15 0 8 -4 15 -10 15 -5 0
-10 -7 -10 -15z"/>
<path d="M10652 4133 c5 -25 28 -28 28 -4 0 12 -6 21 -16 21 -9 0 -14 -7 -12
-17z"/>
<path d="M3300 4125 c0 -8 0 -17 0 -20 0 -3 3 -5 8 -4 4 0 10 -10 13 -23 5
-17 7 -14 6 14 0 21 -6 39 -14 42 -7 3 -13 -1 -13 -9z"/>
<path d="M1110 4069 c0 -11 5 -17 10 -14 6 3 10 13 10 21 0 8 -4 14 -10 14 -5
0 -10 -9 -10 -21z"/>
<path d="M1243 4063 c-7 -2 -13 -11 -13 -19 0 -9 5 -12 10 -9 6 3 10 -3 10
-14 0 -12 5 -21 11 -21 5 0 8 4 4 9 -3 5 -1 12 5 16 5 3 10 15 10 26 0 18 -12
23 -37 12z"/>
<path d="M10500 4051 c0 -12 5 -21 10 -21 6 0 10 6 10 14 0 8 -4 18 -10 21 -5
3 -10 -3 -10 -14z"/>
<path d="M3097 3990 c-6 -23 3 -26 21 -8 16 16 15 28 -2 28 -7 0 -16 -9 -19
-20z"/>
<path d="M2680 3934 c0 -8 5 -12 10 -9 6 4 8 11 5 16 -9 14 -15 11 -15 -7z"/>
<path d="M3106 3923 c-11 -11 -6 -23 9 -23 8 0 15 4 15 9 0 13 -16 22 -24 14z"/>
<path d="M2160 3900 c0 -5 5 -10 10 -10 6 0 10 5 10 10 0 6 -4 10 -10 10 -5 0
-10 -4 -10 -10z"/>
<path d="M2760 3845 c0 -8 4 -15 9 -15 5 0 11 7 15 15 3 9 0 15 -9 15 -8 0
-15 -7 -15 -15z"/>
<path d="M3870 3825 c0 -8 5 -15 10 -15 6 0 10 7 10 15 0 8 -4 15 -10 15 -5 0
-10 -7 -10 -15z"/>
<path d="M2820 3805 c0 -8 5 -15 10 -15 6 0 10 7 10 15 0 8 -4 15 -10 15 -5 0
-10 -7 -10 -15z"/>
<path d="M1402 3798 c-17 -17 -15 -38 3 -38 9 0 15 9 15 25 0 29 -1 30 -18 13z"/>
<path d="M2725 3780 c-8 -13 -1 -24 14 -19 6 3 7 10 2 18 -6 10 -10 10 -16 1z"/>
<path d="M2270 3760 c0 -19 3 -21 12 -12 9 9 9 15 0 24 -9 9 -12 7 -12 -12z"/>
<path d="M1320 3740 c0 -21 4 -30 12 -28 7 3 12 15 12 28 0 13 -5 25 -12 28
-8 2 -12 -7 -12 -28z"/>
<path d="M2432 3720 c0 -14 2 -19 5 -12 2 6 2 18 0 25 -3 6 -5 1 -5 -13z"/>
<path d="M1245 3700 c-10 -11 -16 -21 -14 -21 28 -9 49 -4 49 12 0 27 -15 31
-35 9z"/>
<path d="M2320 3691 c0 -12 5 -21 10 -21 6 0 10 6 10 14 0 8 -4 18 -10 21 -5
3 -10 -3 -10 -14z"/>
<path d="M1440 3665 c0 -8 5 -15 10 -15 6 0 10 7 10 15 0 8 -4 15 -10 15 -5 0
-10 -7 -10 -15z"/>
<path d="M2396 3672 c-2 -4 -1 -14 5 -22 7 -12 9 -10 9 8 0 23 -5 28 -14 14z"/>
<path d="M2280 3649 c0 -24 23 -21 28 4 2 10 -3 17 -12 17 -10 0 -16 -9 -16
-21z"/>
<path d="M10540 3635 c-7 -9 -10 -18 -7 -21 10 -10 47 7 47 22 0 19 -24 18
-40 -1z"/>
<path d="M1130 3615 c0 -8 5 -15 10 -15 6 0 10 7 10 15 0 8 -4 15 -10 15 -5 0
-10 -7 -10 -15z"/>
<path d="M2250 3585 c0 -8 7 -15 15 -15 8 0 15 4 15 9 0 5 -7 11 -15 15 -9 3
-15 0 -15 -9z"/>
<path d="M10556 3573 c-11 -11 -6 -23 9 -23 8 0 15 4 15 9 0 13 -16 22 -24 14z"/>
<path d="M4038 3525 c-3 -3 -2 -20 1 -37 8 -39 31 -50 31 -15 0 43 -15 68 -32
52z"/>
<path d="M10645 3480 c-4 -6 -11 -8 -16 -5 -5 4 -9 -1 -9 -9 0 -9 6 -16 14
-16 25 0 46 12 46 26 0 16 -26 19 -35 4z"/>
<path d="M857 3473 c-12 -11 -8 -23 8 -23 8 0 15 7 15 15 0 16 -12 20 -23 8z"/>
<path d="M3970 3420 c0 -5 4 -10 9 -10 6 0 13 5 16 10 3 6 -1 10 -9 10 -9 0
-16 -4 -16 -10z"/>
<path d="M3940 3375 c0 -8 7 -15 15 -15 9 0 12 6 9 15 -4 8 -10 15 -15 15 -5
0 -9 -7 -9 -15z"/>
<path d="M10710 3285 c0 -18 5 -25 19 -25 19 0 22 14 8 38 -13 20 -27 14 -27
-13z"/>
<path d="M840 3243 c0 -14 6 -23 15 -23 9 0 15 9 15 23 0 14 -6 24 -15 24 -9
0 -15 -10 -15 -24z"/>
<path d="M4060 3230 c0 -5 5 -10 10 -10 6 0 10 5 10 10 0 6 -4 10 -10 10 -5 0
-10 -4 -10 -10z"/>
<path d="M10200 3108 c-2 -5 -3 -12 -4 -17 0 -5 -4 -13 -8 -17 -12 -11 -9 -44
3 -44 6 0 13 9 16 20 3 11 11 20 17 20 7 0 13 7 13 15 0 9 -6 14 -13 11 -7 -3
-15 0 -18 7 -2 7 -5 9 -6 5z"/>
<path d="M4210 2956 c0 -14 5 -26 10 -26 6 0 10 9 10 19 0 11 -4 23 -10 26 -6
4 -10 -5 -10 -19z"/>
<path d="M10110 2930 c0 -11 5 -20 10 -20 6 0 10 9 10 20 0 11 -4 20 -10 20
-5 0 -10 -9 -10 -20z"/>
<path d="M4220 2910 c0 -5 5 -10 10 -10 6 0 10 5 10 10 0 6 -4 10 -10 10 -5 0
-10 -4 -10 -10z"/>
<path d="M10195 2910 c3 -5 8 -10 11 -10 2 0 4 5 4 10 0 6 -5 10 -11 10 -5 0
-7 -4 -4 -10z"/>
<path d="M4157 2853 c-4 -3 -7 -12 -7 -20 0 -11 4 -11 20 -1 11 7 20 16 20 20
0 10 -24 10 -33 1z"/>
<path d="M4285 2758 c9 -41 14 -46 26 -28 14 23 6 54 -14 58 -17 3 -18 -1 -12
-30z"/>
<path d="M4325 2739 c-4 -5 -1 -17 7 -26 10 -13 10 -17 1 -20 -15 -5 -18 -33
-4 -33 5 0 12 6 14 13 3 7 6 5 6 -5 1 -14 10 -18 36 -18 19 0 35 3 35 6 0 12
-34 33 -52 34 -19 0 -26 20 -8 20 16 0 11 14 -10 27 -13 8 -21 9 -25 2z"/>
<path d="M4190 2711 c-7 -13 -7 -22 0 -26 13 -8 30 3 30 20 0 23 -18 27 -30 6z"/>
<path d="M4704 2639 c-7 -12 15 -31 28 -23 9 6 -1 34 -12 34 -5 0 -12 -5 -16
-11z"/>
<path d="M9940 2629 c0 -11 5 -17 10 -14 6 3 10 13 10 21 0 8 -4 14 -10 14 -5
0 -10 -9 -10 -21z"/>
<path d="M10015 2632 c-17 -17 27 -78 47 -66 13 8 9 34 -4 32 -8 -2 -12 5 -10
18 2 19 -19 29 -33 16z"/>
<path d="M4707 2593 c-12 -11 -8 -23 8 -23 8 0 15 7 15 15 0 16 -12 20 -23 8z"/>
<path d="M4750 2583 c0 -11 7 -24 16 -27 26 -10 28 1 5 25 -21 22 -21 22 -21
2z"/>
<path d="M4350 2560 c0 -5 7 -10 15 -10 8 0 15 5 15 10 0 6 -7 10 -15 10 -8 0
-15 -4 -15 -10z"/>
<path d="M4437 2556 c-4 -10 -5 -21 -2 -24 9 -9 17 6 13 25 -3 17 -4 17 -11
-1z"/>
<path d="M10160 2485 c0 -8 5 -15 10 -15 6 0 10 7 10 15 0 8 -4 15 -10 15 -5
0 -10 -7 -10 -15z"/>
<path d="M10200 2476 c0 -9 7 -16 16 -16 9 0 14 5 12 12 -6 18 -28 21 -28 4z"/>
<path d="M10186 2441 c-4 -7 -5 -15 -2 -18 9 -9 19 4 14 18 -4 11 -6 11 -12 0z"/>
<path d="M4826 2293 c-11 -11 -6 -23 9 -23 8 0 15 4 15 9 0 13 -16 22 -24 14z"/>
<path d="M10143 2224 c-7 -19 2 -28 22 -21 19 8 19 23 0 31 -9 3 -18 -1 -22
-10z"/>
<path d="M4817 2213 c4 -11 3 -14 -6 -9 -8 5 -14 1 -18 -13 -3 -12 -9 -21 -14
-21 -5 0 -9 -7 -9 -15 0 -8 5 -15 10 -15 6 0 10 5 10 10 0 6 9 20 20 32 21 23
27 48 10 48 -5 0 -6 -7 -3 -17z"/>
<path d="M4735 2210 c3 -5 10 -10 16 -10 5 0 9 5 9 10 0 6 -7 10 -16 10 -8 0
-12 -4 -9 -10z"/>
<path d="M4820 2180 c0 -5 7 -10 15 -10 8 0 15 5 15 10 0 6 -7 10 -15 10 -8 0
-15 -4 -15 -10z"/>
<path d="M4843 2152 c-6 -4 -15 -20 -18 -35 -6 -21 -4 -27 10 -27 9 0 13 5 10
10 -3 6 3 10 14 10 24 0 26 9 9 33 -7 9 -18 13 -25 9z"/>
<path d="M10390 2151 c0 -5 7 -11 15 -15 9 -3 15 0 15 9 0 8 -7 15 -15 15 -8
0 -15 -4 -15 -9z"/>
<path d="M4770 2090 c0 -5 5 -10 10 -10 6 0 10 5 10 10 0 6 -4 10 -10 10 -5 0
-10 -4 -10 -10z"/>
<path d="M10346 2091 c-4 -7 -5 -15 -2 -18 9 -9 19 4 14 18 -4 11 -6 11 -12 0z"/>
<path d="M9597 2076 c-8 -19 3 -57 14 -50 12 7 12 51 0 58 -5 3 -11 0 -14 -8z"/>
<path d="M10180 2076 c0 -8 5 -18 10 -21 6 -3 10 3 10 14 0 12 -4 21 -10 21
-5 0 -10 -6 -10 -14z"/>
<path d="M10210 2060 c0 -5 7 -10 15 -10 8 0 15 5 15 10 0 6 -7 10 -15 10 -8
0 -15 -4 -15 -10z"/>
<path d="M5476 1971 c-4 -7 -5 -15 -2 -18 9 -9 19 4 14 18 -4 11 -6 11 -12 0z"/>
<path d="M10241 1971 c-10 -6 -10 -10 -1 -16 13 -8 24 -1 19 14 -3 6 -10 7
-18 2z"/>
<path d="M10366 1973 c-11 -11 -6 -23 9 -23 8 0 15 4 15 9 0 13 -16 22 -24 14z"/>
<path d="M4910 1945 c0 -8 -5 -15 -11 -15 -5 0 -7 -4 -4 -10 12 -20 35 -10 35
15 0 14 -4 25 -10 25 -5 0 -10 -7 -10 -15z"/>
<path d="M9771 1944 c-17 -20 -12 -23 22 -17 15 3 27 12 27 19 0 19 -32 17
-49 -2z"/>
<path d="M5390 1894 c0 -8 5 -12 10 -9 6 4 8 11 5 16 -9 14 -15 11 -15 -7z"/>
<path d="M5270 1890 c0 -5 5 -10 10 -10 6 0 10 5 10 10 0 6 -4 10 -10 10 -5 0
-10 -4 -10 -10z"/>
<path d="M9670 1890 c0 -5 7 -10 16 -10 8 0 12 5 9 10 -3 6 -10 10 -16 10 -5
0 -9 -4 -9 -10z"/>
<path d="M10239 1900 c0 -3 -2 -13 -4 -22 -2 -10 1 -20 6 -24 14 -8 23 26 10
39 -6 6 -11 9 -12 7z"/>
<path d="M5130 1871 c0 -6 5 -13 10 -16 6 -3 10 1 10 9 0 9 -4 16 -10 16 -5 0
-10 -4 -10 -9z"/>
<path d="M4697 1844 c-4 -4 -4 -10 -1 -15 6 -10 34 0 34 12 0 10 -24 12 -33 3z"/>
<path d="M5288 1840 c-10 -6 -14 -18 -11 -30 6 -23 23 -27 23 -5 0 8 7 15 15
15 8 0 15 -7 15 -15 0 -8 7 -15 15 -15 20 0 19 5 -9 34 -26 29 -25 29 -48 16z"/>
<path d="M5420 1830 c0 -5 5 -10 10 -10 6 0 10 5 10 10 0 6 -4 10 -10 10 -5 0
-10 -4 -10 -10z"/>
<path d="M5120 1795 c0 -8 5 -15 10 -15 6 0 10 7 10 15 0 8 -4 15 -10 15 -5 0
-10 -7 -10 -15z"/>
<path d="M8710 1770 c0 -5 5 -10 10 -10 6 0 10 5 10 10 0 6 -4 10 -10 10 -5 0
-10 -4 -10 -10z"/>
<path d="M9068 1751 c-10 -10 -18 -26 -18 -36 0 -15 4 -13 25 9 38 41 31 66
-7 27z"/>
<path d="M9120 1756 c0 -8 5 -18 10 -21 6 -3 10 3 10 14 0 12 -4 21 -10 21 -5
0 -10 -6 -10 -14z"/>
<path d="M4820 1740 c0 -5 7 -10 15 -10 8 0 15 5 15 10 0 6 -7 10 -15 10 -8 0
-15 -4 -15 -10z"/>
<path d="M5810 1740 c0 -5 5 -10 10 -10 6 0 10 5 10 10 0 6 -4 10 -10 10 -5 0
-10 -4 -10 -10z"/>
<path d="M10210 1711 c0 -39 17 -48 43 -23 17 17 18 23 7 36 -7 9 -21 16 -31
16 -14 0 -19 -7 -19 -29z"/>
<path d="M4860 1710 c0 -5 7 -10 15 -10 8 0 15 5 15 10 0 6 -7 10 -15 10 -8 0
-15 -4 -15 -10z"/>
<path d="M5840 1705 c0 -8 4 -15 9 -15 5 0 11 7 15 15 3 9 0 15 -9 15 -8 0
-15 -7 -15 -15z"/>
<path d="M8874 1705 c22 -17 36 -19 36 -6 0 10 -24 21 -43 21 -7 0 -3 -7 7
-15z"/>
<path d="M4910 1700 c0 -5 5 -10 10 -10 6 0 10 5 10 10 0 6 -4 10 -10 10 -5 0
-10 -4 -10 -10z"/>
<path d="M5875 1698 c-7 -18 10 -58 25 -58 5 0 6 8 3 17 -7 17 -6 17 19 1 19
-12 29 -14 34 -7 7 12 -13 29 -35 29 -8 0 -20 8 -27 18 -12 16 -13 16 -19 0z"/>
<path d="M6295 1700 c-3 -5 1 -10 9 -10 9 0 16 5 16 10 0 6 -4 10 -9 10 -6 0
-13 -4 -16 -10z"/>
<path d="M8533 1695 c-15 -17 -17 -51 -3 -60 6 -3 10 0 10 9 0 8 4 16 9 18 4
2 12 13 15 26 8 25 -11 30 -31 7z"/>
<path d="M8577 1688 c-8 -30 8 -45 22 -20 8 15 7 23 -3 31 -11 9 -15 7 -19
-11z"/>
<path d="M9002 1694 c3 -17 21 -21 26 -6 1 5 -4 12 -13 16 -11 4 -15 1 -13
-10z"/>
<path d="M4862 1679 c2 -6 8 -10 13 -10 5 0 11 4 13 10 2 6 -4 11 -13 11 -9 0
-15 -5 -13 -11z"/>
<path d="M4920 1671 c0 -6 5 -13 10 -16 6 -3 10 1 10 9 0 9 -4 16 -10 16 -5 0
-10 -4 -10 -9z"/>
<path d="M4986 1664 c-9 -24 -7 -34 8 -34 7 0 16 11 18 25 6 28 -16 36 -26 9z"/>
<path d="M9050 1665 c0 -8 2 -15 4 -15 2 0 6 7 10 15 3 8 1 15 -4 15 -6 0 -10
-7 -10 -15z"/>
<path d="M4770 1655 c0 -8 5 -15 10 -15 6 0 10 7 10 15 0 8 -4 15 -10 15 -5 0
-10 -7 -10 -15z"/>
<path d="M8390 1645 c0 -8 5 -15 10 -15 6 0 10 7 10 15 0 8 -4 15 -10 15 -5 0
-10 -7 -10 -15z"/>
<path d="M8892 1652 c-13 -4 -23 -10 -23 -14 1 -5 1 -15 1 -23 0 -9 9 -15 21
-15 15 0 19 5 15 15 -3 9 0 15 9 15 8 0 15 7 15 15 0 16 -3 17 -38 7z"/>
<path d="M6092 1643 c-13 -3 -21 -10 -19 -16 6 -18 38 -21 48 -5 11 16 11 28
2 27 -5 -1 -18 -4 -31 -6z"/>
<path d="M5923 1623 c-18 -6 -16 -23 1 -23 17 0 30 16 19 23 -5 2 -14 2 -20 0z"/>
<path d="M6146 1621 c-4 -7 -5 -15 -2 -18 9 -9 19 4 14 18 -4 11 -6 11 -12 0z"/>
<path d="M4671 1611 c-17 -11 -7 -43 11 -36 8 3 14 14 14 25 0 22 -4 24 -25
11z"/>
<path d="M8810 1607 c0 -14 20 -27 41 -27 5 0 9 7 9 15 0 8 -4 15 -9 15 -5 0
-16 3 -25 6 -10 4 -16 1 -16 -9z"/>
<path d="M8396 1595 c4 -8 10 -15 15 -15 5 0 9 7 9 15 0 8 -7 15 -15 15 -9 0
-12 -6 -9 -15z"/>
<path d="M4864 1576 c-6 -16 2 -36 14 -36 11 0 12 39 1 45 -5 4 -12 -1 -15 -9z"/>
<path d="M5063 1583 c-7 -3 -13 -11 -13 -18 0 -20 27 -26 35 -8 7 19 -5 32
-22 26z"/>
<path d="M8200 1580 c0 -5 5 -10 10 -10 6 0 10 5 10 10 0 6 -4 10 -10 10 -5 0
-10 -4 -10 -10z"/>
<path d="M6030 1560 c0 -13 7 -20 20 -20 23 0 26 10 8 28 -18 18 -28 15 -28
-8z"/>
<path d="M8950 1570 c0 -5 5 -10 10 -10 6 0 10 5 10 10 0 6 -4 10 -10 10 -5 0
-10 -4 -10 -10z"/>
<path d="M8930 1550 c0 -5 7 -10 16 -10 8 0 12 5 9 10 -3 6 -10 10 -16 10 -5
0 -9 -4 -9 -10z"/>
<path d="M6090 1532 c0 -13 -6 -22 -15 -22 -16 0 -21 -15 -7 -24 13 -8 39 18
36 37 -4 28 -14 34 -14 9z"/>
<path d="M8090 1309 c0 -5 -4 -7 -10 -4 -11 7 -13 -15 -4 -39 9 -23 27 -20 21
4 -3 11 -1 20 4 20 5 0 9 7 9 15 0 8 -4 15 -10 15 -5 0 -10 -5 -10 -11z"/>
<path d="M6764 1216 c-3 -15 -4 -30 0 -33 3 -4 6 1 6 10 0 8 6 17 13 20 9 3 9
7 0 17 -9 10 -13 7 -19 -14z"/>
<path d="M6700 1216 c0 -22 17 -28 24 -10 9 22 8 24 -9 24 -8 0 -15 -6 -15
-14z"/>
<path d="M8107 1143 c-11 -11 -8 -23 6 -23 8 0 14 7 14 15 0 16 -9 19 -20 8z"/>
<path d="M8146 1111 c-4 -6 -1 -18 8 -26 27 -27 36 -13 13 20 -10 12 -16 15
-21 6z"/>
<path d="M8030 1060 c0 -5 5 -10 10 -10 6 0 10 5 10 10 0 6 -4 10 -10 10 -5 0
-10 -4 -10 -10z"/>
<path d="M8200 1040 c0 -5 5 -10 10 -10 6 0 10 5 10 10 0 6 -4 10 -10 10 -5 0
-10 -4 -10 -10z"/>
<path d="M6684 1029 c-3 -6 -1 -16 5 -22 8 -8 11 -5 11 11 0 24 -5 28 -16 11z"/>
<path d="M8140 1011 c0 -17 18 -21 24 -6 3 9 0 15 -9 15 -8 0 -15 -4 -15 -9z"/>
<path d="M6700 966 c0 -8 7 -16 15 -20 10 -4 15 1 15 14 0 11 -7 20 -15 20 -8
0 -15 -6 -15 -14z"/>
<path d="M6670 935 c0 -8 5 -15 10 -15 6 0 10 7 10 15 0 8 -4 15 -10 15 -5 0
-10 -7 -10 -15z"/>
<path d="M8080 910 c0 -5 5 -10 10 -10 6 0 10 5 10 10 0 6 -4 10 -10 10 -5 0
-10 -4 -10 -10z"/>
<path d="M6797 813 c-4 -3 -7 -12 -7 -20 0 -11 5 -11 20 -3 11 6 20 15 20 20
0 11 -23 13 -33 3z"/>
<path d="M8110 804 c0 -8 5 -12 10 -9 6 3 10 10 10 16 0 5 -4 9 -10 9 -5 0
-10 -7 -10 -16z"/>
<path d="M6761 794 c0 -11 3 -14 6 -6 3 7 2 16 -1 19 -3 4 -6 -2 -5 -13z"/>
<path d="M6790 710 c0 -5 5 -10 11 -10 5 0 7 5 4 10 -3 6 -8 10 -11 10 -2 0
-4 -4 -4 -10z"/>
<path d="M6800 680 c0 -5 5 -10 10 -10 6 0 10 5 10 10 0 6 -4 10 -10 10 -5 0
-10 -4 -10 -10z"/>
<path d="M6770 651 c0 -18 18 -21 30 -6 10 13 9 15 -9 15 -11 0 -21 -4 -21 -9z"/>
<path d="M6952 623 c2 -9 9 -18 16 -21 18 -6 15 25 -4 32 -11 4 -14 1 -12 -11z"/>
<path d="M7730 556 c0 -9 5 -16 10 -16 6 0 10 4 10 9 0 6 -4 13 -10 16 -5 3
-10 -1 -10 -9z"/>
<path d="M6565 550 c3 -5 8 -10 11 -10 2 0 4 5 4 10 0 6 -5 10 -11 10 -5 0 -7
-4 -4 -10z"/>
<path d="M8230 520 c0 -5 5 -10 10 -10 6 0 10 5 10 10 0 6 -4 10 -10 10 -5 0
-10 -4 -10 -10z"/>
<path d="M7680 467 c0 -8 7 -20 15 -27 12 -10 15 -10 15 3 0 8 -7 20 -15 27
-12 10 -15 10 -15 -3z"/>
<path d="M6772 459 c2 -6 8 -10 13 -10 5 0 11 4 13 10 2 6 -4 11 -13 11 -9 0
-15 -5 -13 -11z"/>
<path d="M7780 320 c0 -5 7 -10 15 -10 8 0 15 5 15 10 0 6 -7 10 -15 10 -8 0
-15 -4 -15 -10z"/>
<path d="M7600 311 c0 -17 18 -21 24 -6 3 9 0 15 -9 15 -8 0 -15 -4 -15 -9z"/>
<path d="M7811 224 c0 -11 3 -14 6 -6 3 7 2 16 -1 19 -3 4 -6 -2 -5 -13z"/>
<path d="M7520 170 c0 -5 7 -10 15 -10 8 0 15 5 15 10 0 6 -7 10 -15 10 -8 0
-15 -4 -15 -10z"/>
</g>
</svg>
